<mxfile host="Electron" modified="2024-05-22T00:29:43.327Z" agent="Mozilla/5.0 (Windows NT 10.0; Win64; x64) AppleWebKit/537.36 (KHTML, like Gecko) draw.io/24.4.0 Chrome/120.0.6099.109 Electron/28.1.0 Safari/537.36" etag="IjbgheJW8Ub5PJztypHs" version="24.4.0" type="device" pages="3">
  <diagram name="Brainstorming" id="g2jQuPB9zfOCcW3fMq6r">
    <mxGraphModel dx="1050" dy="621" grid="1" gridSize="10" guides="1" tooltips="1" connect="1" arrows="1" fold="1" page="1" pageScale="1" pageWidth="700" pageHeight="600" math="0" shadow="0">
      <root>
        <mxCell id="0" />
        <mxCell id="1" parent="0" />
        <mxCell id="0D0Ntdy-8VNxhYWFWBt3-2" value="Cliente se identificou via CPF" style="rounded=1;whiteSpace=wrap;html=1;fillColor=#ffe6cc;strokeColor=#d79b00;" parent="1" vertex="1">
          <mxGeometry x="40" y="120" width="80" height="80" as="geometry" />
        </mxCell>
        <mxCell id="0D0Ntdy-8VNxhYWFWBt3-3" value="&lt;b&gt;&lt;font style=&quot;font-size: 20px;&quot;&gt;Brainstorming&lt;/font&gt;&lt;/b&gt;" style="text;html=1;align=center;verticalAlign=middle;whiteSpace=wrap;rounded=0;fillColor=#ffe6cc;strokeColor=#d79b00;" parent="1" vertex="1">
          <mxGeometry x="40" y="40" width="560" height="40" as="geometry" />
        </mxCell>
        <mxCell id="0D0Ntdy-8VNxhYWFWBt3-4" value="Cliente se cadastrou" style="rounded=1;whiteSpace=wrap;html=1;fillColor=#ffe6cc;strokeColor=#d79b00;" parent="1" vertex="1">
          <mxGeometry x="160" y="120" width="80" height="80" as="geometry" />
        </mxCell>
        <mxCell id="0D0Ntdy-8VNxhYWFWBt3-5" value="Cliente escolheu o lanche" style="rounded=1;whiteSpace=wrap;html=1;fillColor=#ffe6cc;strokeColor=#d79b00;" parent="1" vertex="1">
          <mxGeometry x="40" y="240" width="80" height="80" as="geometry" />
        </mxCell>
        <mxCell id="0D0Ntdy-8VNxhYWFWBt3-6" value="Cliente escolheu a bebida" style="rounded=1;whiteSpace=wrap;html=1;fillColor=#ffe6cc;strokeColor=#d79b00;" parent="1" vertex="1">
          <mxGeometry x="280" y="240" width="80" height="80" as="geometry" />
        </mxCell>
        <mxCell id="0D0Ntdy-8VNxhYWFWBt3-7" value="Cliente escolheu o acompanha-mento" style="rounded=1;whiteSpace=wrap;html=1;fillColor=#ffe6cc;strokeColor=#d79b00;" parent="1" vertex="1">
          <mxGeometry x="160" y="240" width="80" height="80" as="geometry" />
        </mxCell>
        <mxCell id="0D0Ntdy-8VNxhYWFWBt3-8" value="Cliente escolheu a sobremesa" style="rounded=1;whiteSpace=wrap;html=1;fillColor=#ffe6cc;strokeColor=#d79b00;" parent="1" vertex="1">
          <mxGeometry x="400" y="240" width="80" height="80" as="geometry" />
        </mxCell>
        <mxCell id="0D0Ntdy-8VNxhYWFWBt3-9" value="Cliente cancelou o pedido" style="rounded=1;whiteSpace=wrap;html=1;fillColor=#ffe6cc;strokeColor=#d79b00;" parent="1" vertex="1">
          <mxGeometry x="400" y="120" width="80" height="80" as="geometry" />
        </mxCell>
        <mxCell id="0D0Ntdy-8VNxhYWFWBt3-10" value="Cliente efetuou o pagamento" style="rounded=1;whiteSpace=wrap;html=1;fillColor=#ffe6cc;strokeColor=#d79b00;" parent="1" vertex="1">
          <mxGeometry x="520" y="120" width="80" height="80" as="geometry" />
        </mxCell>
        <mxCell id="0D0Ntdy-8VNxhYWFWBt3-11" value="Pedido foi confirmado" style="rounded=1;whiteSpace=wrap;html=1;fillColor=#ffe6cc;strokeColor=#d79b00;" parent="1" vertex="1">
          <mxGeometry x="40" y="360" width="80" height="80" as="geometry" />
        </mxCell>
        <mxCell id="0D0Ntdy-8VNxhYWFWBt3-12" value="Pedido foi pago" style="rounded=1;whiteSpace=wrap;html=1;fillColor=#ffe6cc;strokeColor=#d79b00;" parent="1" vertex="1">
          <mxGeometry x="160" y="360" width="80" height="80" as="geometry" />
        </mxCell>
        <mxCell id="0D0Ntdy-8VNxhYWFWBt3-13" value="Pedido foi enviado para cozinha" style="rounded=1;whiteSpace=wrap;html=1;fillColor=#ffe6cc;strokeColor=#d79b00;" parent="1" vertex="1">
          <mxGeometry x="280" y="360" width="80" height="80" as="geometry" />
        </mxCell>
        <mxCell id="0D0Ntdy-8VNxhYWFWBt3-14" value="Pedido foi recebido" style="rounded=1;whiteSpace=wrap;html=1;fillColor=#ffe6cc;strokeColor=#d79b00;" parent="1" vertex="1">
          <mxGeometry x="400" y="360" width="80" height="80" as="geometry" />
        </mxCell>
        <mxCell id="0D0Ntdy-8VNxhYWFWBt3-15" value="Pedido foi finalizado" style="rounded=1;whiteSpace=wrap;html=1;fillColor=#ffe6cc;strokeColor=#d79b00;" parent="1" vertex="1">
          <mxGeometry x="40" y="480" width="80" height="80" as="geometry" />
        </mxCell>
        <mxCell id="0D0Ntdy-8VNxhYWFWBt3-17" value="Pedido foi preparado" style="rounded=1;whiteSpace=wrap;html=1;fillColor=#ffe6cc;strokeColor=#d79b00;" parent="1" vertex="1">
          <mxGeometry x="520" y="360" width="80" height="80" as="geometry" />
        </mxCell>
        <mxCell id="0D0Ntdy-8VNxhYWFWBt3-18" value="Cliente retirou o pedido" style="rounded=1;whiteSpace=wrap;html=1;fillColor=#ffe6cc;strokeColor=#d79b00;" parent="1" vertex="1">
          <mxGeometry x="520" y="240" width="80" height="80" as="geometry" />
        </mxCell>
        <mxCell id="0D0Ntdy-8VNxhYWFWBt3-19" value="Cliente nÃ£o se identificou" style="rounded=1;whiteSpace=wrap;html=1;fillColor=#ffe6cc;strokeColor=#d79b00;" parent="1" vertex="1">
          <mxGeometry x="280" y="120" width="80" height="80" as="geometry" />
        </mxCell>
      </root>
    </mxGraphModel>
  </diagram>
  <diagram name="Contexto - Pedido e pagamento" id="S-yPbdilry3j7ZunuViK">
    <mxGraphModel dx="3187" dy="1858" grid="1" gridSize="10" guides="1" tooltips="1" connect="1" arrows="1" fold="1" page="1" pageScale="1" pageWidth="2000" pageHeight="2000" math="0" shadow="0">
      <root>
        <mxCell id="ijZoT9axjzXiMg-8ebRo-0" />
        <mxCell id="ijZoT9axjzXiMg-8ebRo-1" parent="ijZoT9axjzXiMg-8ebRo-0" />
        <mxCell id="E1v5joByqu3OAqutx55n-59" style="edgeStyle=orthogonalEdgeStyle;rounded=0;orthogonalLoop=1;jettySize=auto;html=1;exitX=0.5;exitY=1;exitDx=0;exitDy=0;entryX=0.5;entryY=0;entryDx=0;entryDy=0;" parent="ijZoT9axjzXiMg-8ebRo-1" source="E1v5joByqu3OAqutx55n-55" target="LGjrs3-IYvRmnqfgp4Y6-71" edge="1">
          <mxGeometry relative="1" as="geometry" />
        </mxCell>
        <mxCell id="E1v5joByqu3OAqutx55n-44" style="edgeStyle=orthogonalEdgeStyle;rounded=0;orthogonalLoop=1;jettySize=auto;html=1;exitX=0.5;exitY=1;exitDx=0;exitDy=0;entryX=0;entryY=0.5;entryDx=0;entryDy=0;" parent="ijZoT9axjzXiMg-8ebRo-1" source="E1v5joByqu3OAqutx55n-16" target="E1v5joByqu3OAqutx55n-18" edge="1">
          <mxGeometry relative="1" as="geometry" />
        </mxCell>
        <mxCell id="E1v5joByqu3OAqutx55n-40" style="edgeStyle=orthogonalEdgeStyle;rounded=0;orthogonalLoop=1;jettySize=auto;html=1;exitX=0.5;exitY=1;exitDx=0;exitDy=0;entryX=0;entryY=0.5;entryDx=0;entryDy=0;" parent="ijZoT9axjzXiMg-8ebRo-1" source="E1v5joByqu3OAqutx55n-10" target="E1v5joByqu3OAqutx55n-12" edge="1">
          <mxGeometry relative="1" as="geometry" />
        </mxCell>
        <mxCell id="E1v5joByqu3OAqutx55n-46" style="edgeStyle=orthogonalEdgeStyle;rounded=0;orthogonalLoop=1;jettySize=auto;html=1;exitX=0.5;exitY=1;exitDx=0;exitDy=0;entryX=0.5;entryY=0;entryDx=0;entryDy=0;" parent="ijZoT9axjzXiMg-8ebRo-1" source="E1v5joByqu3OAqutx55n-20" target="LGjrs3-IYvRmnqfgp4Y6-54" edge="1">
          <mxGeometry relative="1" as="geometry" />
        </mxCell>
        <mxCell id="E1v5joByqu3OAqutx55n-45" style="edgeStyle=orthogonalEdgeStyle;rounded=0;orthogonalLoop=1;jettySize=auto;html=1;exitX=1;exitY=0.5;exitDx=0;exitDy=0;" parent="ijZoT9axjzXiMg-8ebRo-1" source="E1v5joByqu3OAqutx55n-18" target="E1v5joByqu3OAqutx55n-20" edge="1">
          <mxGeometry relative="1" as="geometry" />
        </mxCell>
        <mxCell id="E1v5joByqu3OAqutx55n-43" style="edgeStyle=orthogonalEdgeStyle;rounded=0;orthogonalLoop=1;jettySize=auto;html=1;exitX=0.5;exitY=1;exitDx=0;exitDy=0;" parent="ijZoT9axjzXiMg-8ebRo-1" source="E1v5joByqu3OAqutx55n-14" target="LGjrs3-IYvRmnqfgp4Y6-44" edge="1">
          <mxGeometry relative="1" as="geometry" />
        </mxCell>
        <mxCell id="E1v5joByqu3OAqutx55n-41" style="edgeStyle=orthogonalEdgeStyle;rounded=0;orthogonalLoop=1;jettySize=auto;html=1;exitX=1;exitY=0.5;exitDx=0;exitDy=0;entryX=0;entryY=0.5;entryDx=0;entryDy=0;" parent="ijZoT9axjzXiMg-8ebRo-1" source="E1v5joByqu3OAqutx55n-12" target="E1v5joByqu3OAqutx55n-14" edge="1">
          <mxGeometry relative="1" as="geometry" />
        </mxCell>
        <mxCell id="E1v5joByqu3OAqutx55n-32" style="edgeStyle=orthogonalEdgeStyle;rounded=0;orthogonalLoop=1;jettySize=auto;html=1;exitX=0.5;exitY=1;exitDx=0;exitDy=0;entryX=0.5;entryY=0;entryDx=0;entryDy=0;" parent="ijZoT9axjzXiMg-8ebRo-1" source="E1v5joByqu3OAqutx55n-2" target="LGjrs3-IYvRmnqfgp4Y6-18" edge="1">
          <mxGeometry relative="1" as="geometry" />
        </mxCell>
        <mxCell id="E1v5joByqu3OAqutx55n-37" style="edgeStyle=orthogonalEdgeStyle;rounded=0;orthogonalLoop=1;jettySize=auto;html=1;exitX=0.5;exitY=1;exitDx=0;exitDy=0;entryX=0.5;entryY=0;entryDx=0;entryDy=0;" parent="ijZoT9axjzXiMg-8ebRo-1" source="E1v5joByqu3OAqutx55n-8" target="LGjrs3-IYvRmnqfgp4Y6-30" edge="1">
          <mxGeometry relative="1" as="geometry" />
        </mxCell>
        <mxCell id="E1v5joByqu3OAqutx55n-36" style="edgeStyle=orthogonalEdgeStyle;rounded=0;orthogonalLoop=1;jettySize=auto;html=1;exitX=1;exitY=0.5;exitDx=0;exitDy=0;entryX=0;entryY=0.5;entryDx=0;entryDy=0;" parent="ijZoT9axjzXiMg-8ebRo-1" source="E1v5joByqu3OAqutx55n-6" target="E1v5joByqu3OAqutx55n-8" edge="1">
          <mxGeometry relative="1" as="geometry" />
        </mxCell>
        <mxCell id="E1v5joByqu3OAqutx55n-35" style="edgeStyle=orthogonalEdgeStyle;rounded=0;orthogonalLoop=1;jettySize=auto;html=1;exitX=0.5;exitY=1;exitDx=0;exitDy=0;entryX=0;entryY=0.5;entryDx=0;entryDy=0;" parent="ijZoT9axjzXiMg-8ebRo-1" source="E1v5joByqu3OAqutx55n-4" target="E1v5joByqu3OAqutx55n-6" edge="1">
          <mxGeometry relative="1" as="geometry" />
        </mxCell>
        <mxCell id="E1v5joByqu3OAqutx55n-30" style="edgeStyle=orthogonalEdgeStyle;rounded=0;orthogonalLoop=1;jettySize=auto;html=1;entryX=0;entryY=0.5;entryDx=0;entryDy=0;" parent="ijZoT9axjzXiMg-8ebRo-1" source="E1v5joByqu3OAqutx55n-0" target="E1v5joByqu3OAqutx55n-2" edge="1">
          <mxGeometry relative="1" as="geometry" />
        </mxCell>
        <mxCell id="E1v5joByqu3OAqutx55n-29" style="edgeStyle=orthogonalEdgeStyle;rounded=0;orthogonalLoop=1;jettySize=auto;html=1;entryX=0;entryY=0.5;entryDx=0;entryDy=0;" parent="ijZoT9axjzXiMg-8ebRo-1" source="cp0iigBwZGvijFn2ULiu-0" target="E1v5joByqu3OAqutx55n-0" edge="1">
          <mxGeometry relative="1" as="geometry">
            <Array as="points">
              <mxPoint x="1199.68" y="320" />
              <mxPoint x="779.68" y="320" />
              <mxPoint x="779.68" y="400" />
            </Array>
          </mxGeometry>
        </mxCell>
        <mxCell id="LGjrs3-IYvRmnqfgp4Y6-62" style="edgeStyle=orthogonalEdgeStyle;rounded=0;orthogonalLoop=1;jettySize=auto;html=1;entryX=0;entryY=0.5;entryDx=0;entryDy=0;" parent="ijZoT9axjzXiMg-8ebRo-1" source="LGjrs3-IYvRmnqfgp4Y6-56" target="LGjrs3-IYvRmnqfgp4Y6-60" edge="1">
          <mxGeometry relative="1" as="geometry" />
        </mxCell>
        <mxCell id="LGjrs3-IYvRmnqfgp4Y6-46" style="edgeStyle=orthogonalEdgeStyle;rounded=0;orthogonalLoop=1;jettySize=auto;html=1;entryX=0;entryY=0.5;entryDx=0;entryDy=0;" parent="ijZoT9axjzXiMg-8ebRo-1" source="LGjrs3-IYvRmnqfgp4Y6-47" target="LGjrs3-IYvRmnqfgp4Y6-50" edge="1">
          <mxGeometry relative="1" as="geometry" />
        </mxCell>
        <mxCell id="dLowDMYME99HGBobtzNQ-7" value="IdentificaÃ§Ã£o" style="text;html=1;align=center;verticalAlign=middle;whiteSpace=wrap;rounded=0;rotation=-90;fontSize=20;" parent="ijZoT9axjzXiMg-8ebRo-1" vertex="1">
          <mxGeometry x="570" y="90" width="100" height="20" as="geometry" />
        </mxCell>
        <mxCell id="dLowDMYME99HGBobtzNQ-8" value="" style="endArrow=none;html=1;rounded=0;strokeWidth=3;" parent="ijZoT9axjzXiMg-8ebRo-1" edge="1">
          <mxGeometry width="50" height="50" relative="1" as="geometry">
            <mxPoint x="1280" y="1720" as="sourcePoint" />
            <mxPoint x="1280" y="40" as="targetPoint" />
          </mxGeometry>
        </mxCell>
        <mxCell id="dLowDMYME99HGBobtzNQ-9" value="Pedido" style="text;html=1;align=center;verticalAlign=middle;whiteSpace=wrap;rounded=0;rotation=-90;fontSize=20;" parent="ijZoT9axjzXiMg-8ebRo-1" vertex="1">
          <mxGeometry x="1230" y="70" width="70" height="20" as="geometry" />
        </mxCell>
        <mxCell id="dLowDMYME99HGBobtzNQ-10" value="" style="endArrow=none;html=1;rounded=0;strokeWidth=3;" parent="ijZoT9axjzXiMg-8ebRo-1" edge="1">
          <mxGeometry width="50" height="50" relative="1" as="geometry">
            <mxPoint x="1920" y="1720" as="sourcePoint" />
            <mxPoint x="1920" y="40" as="targetPoint" />
          </mxGeometry>
        </mxCell>
        <mxCell id="dLowDMYME99HGBobtzNQ-20" style="edgeStyle=orthogonalEdgeStyle;rounded=0;orthogonalLoop=1;jettySize=auto;html=1;entryX=0;entryY=0.5;entryDx=0;entryDy=0;" parent="ijZoT9axjzXiMg-8ebRo-1" source="dLowDMYME99HGBobtzNQ-15" target="dLowDMYME99HGBobtzNQ-18" edge="1">
          <mxGeometry relative="1" as="geometry" />
        </mxCell>
        <mxCell id="dLowDMYME99HGBobtzNQ-15" value="inicia interaÃ§Ã£o" style="rounded=0;whiteSpace=wrap;html=1;fillColor=#dae8fc;strokeColor=#6c8ebf;" parent="ijZoT9axjzXiMg-8ebRo-1" vertex="1">
          <mxGeometry x="160.31" y="200" width="80" height="80" as="geometry" />
        </mxCell>
        <mxCell id="dLowDMYME99HGBobtzNQ-16" value="CMD" style="text;html=1;align=center;verticalAlign=middle;whiteSpace=wrap;rounded=0;" parent="ijZoT9axjzXiMg-8ebRo-1" vertex="1">
          <mxGeometry x="160.31" y="200" width="30" height="20" as="geometry" />
        </mxCell>
        <mxCell id="dLowDMYME99HGBobtzNQ-17" value="Cliente" style="rounded=0;whiteSpace=wrap;html=1;fillColor=#fff2cc;strokeColor=#d6b656;rotation=-90;" parent="ijZoT9axjzXiMg-8ebRo-1" vertex="1">
          <mxGeometry x="130.31" y="270" width="54" height="20" as="geometry" />
        </mxCell>
        <mxCell id="ZbRTq6buB_a8Vku2JLAF-5" style="edgeStyle=orthogonalEdgeStyle;rounded=0;orthogonalLoop=1;jettySize=auto;html=1;exitX=1;exitY=0.5;exitDx=0;exitDy=0;entryX=0;entryY=0.5;entryDx=0;entryDy=0;" edge="1" parent="ijZoT9axjzXiMg-8ebRo-1" source="dLowDMYME99HGBobtzNQ-18" target="dLowDMYME99HGBobtzNQ-23">
          <mxGeometry relative="1" as="geometry" />
        </mxCell>
        <mxCell id="dLowDMYME99HGBobtzNQ-18" value="interaÃ§Ã£o iniciada" style="rounded=0;whiteSpace=wrap;html=1;fillColor=#ffe6cc;strokeColor=#d79b00;" parent="ijZoT9axjzXiMg-8ebRo-1" vertex="1">
          <mxGeometry x="400.31" y="200" width="80" height="80" as="geometry" />
        </mxCell>
        <mxCell id="dLowDMYME99HGBobtzNQ-19" value="EV" style="text;html=1;align=center;verticalAlign=middle;whiteSpace=wrap;rounded=0;" parent="ijZoT9axjzXiMg-8ebRo-1" vertex="1">
          <mxGeometry x="400.31" y="200" width="20" height="20" as="geometry" />
        </mxCell>
        <mxCell id="ZbRTq6buB_a8Vku2JLAF-6" style="edgeStyle=orthogonalEdgeStyle;rounded=0;orthogonalLoop=1;jettySize=auto;html=1;exitX=0.5;exitY=1;exitDx=0;exitDy=0;entryX=0;entryY=0.5;entryDx=0;entryDy=0;" edge="1" parent="ijZoT9axjzXiMg-8ebRo-1" source="dLowDMYME99HGBobtzNQ-23" target="-sFEfXRFQmvI-8654Sgb-5">
          <mxGeometry relative="1" as="geometry" />
        </mxCell>
        <mxCell id="dLowDMYME99HGBobtzNQ-23" value="solicitar identificaÃ§Ã£o" style="rounded=0;whiteSpace=wrap;html=1;fillColor=#e1d5e7;strokeColor=#9673a6;" parent="ijZoT9axjzXiMg-8ebRo-1" vertex="1">
          <mxGeometry x="520.31" y="200" width="80" height="80" as="geometry" />
        </mxCell>
        <mxCell id="dLowDMYME99HGBobtzNQ-24" value="POL" style="text;html=1;align=center;verticalAlign=middle;whiteSpace=wrap;rounded=0;" parent="ijZoT9axjzXiMg-8ebRo-1" vertex="1">
          <mxGeometry x="520.31" y="200" width="30" height="20" as="geometry" />
        </mxCell>
        <mxCell id="ZbRTq6buB_a8Vku2JLAF-11" style="edgeStyle=orthogonalEdgeStyle;rounded=0;orthogonalLoop=1;jettySize=auto;html=1;exitX=0.5;exitY=1;exitDx=0;exitDy=0;" edge="1" parent="ijZoT9axjzXiMg-8ebRo-1" source="dLowDMYME99HGBobtzNQ-27" target="-sFEfXRFQmvI-8654Sgb-17">
          <mxGeometry relative="1" as="geometry" />
        </mxCell>
        <mxCell id="dLowDMYME99HGBobtzNQ-27" value="identificaÃ§Ã£o solicitada" style="rounded=0;whiteSpace=wrap;html=1;fillColor=#ffe6cc;strokeColor=#d79b00;" parent="ijZoT9axjzXiMg-8ebRo-1" vertex="1">
          <mxGeometry x="400.31" y="360" width="80" height="80" as="geometry" />
        </mxCell>
        <mxCell id="dLowDMYME99HGBobtzNQ-28" value="EV" style="text;html=1;align=center;verticalAlign=middle;whiteSpace=wrap;rounded=0;" parent="ijZoT9axjzXiMg-8ebRo-1" vertex="1">
          <mxGeometry x="400.31" y="360" width="20" height="20" as="geometry" />
        </mxCell>
        <mxCell id="-sFEfXRFQmvI-8654Sgb-8" style="edgeStyle=orthogonalEdgeStyle;rounded=0;orthogonalLoop=1;jettySize=auto;html=1;entryX=0;entryY=0.5;entryDx=0;entryDy=0;" parent="ijZoT9axjzXiMg-8ebRo-1" source="-sFEfXRFQmvI-8654Sgb-5" target="dLowDMYME99HGBobtzNQ-27" edge="1">
          <mxGeometry relative="1" as="geometry" />
        </mxCell>
        <mxCell id="-sFEfXRFQmvI-8654Sgb-5" value="solicita identificaÃ§Ã£o" style="rounded=0;whiteSpace=wrap;html=1;fillColor=#dae8fc;strokeColor=#6c8ebf;" parent="ijZoT9axjzXiMg-8ebRo-1" vertex="1">
          <mxGeometry x="160.31" y="360" width="80" height="80" as="geometry" />
        </mxCell>
        <mxCell id="-sFEfXRFQmvI-8654Sgb-6" value="CMD" style="text;html=1;align=center;verticalAlign=middle;whiteSpace=wrap;rounded=0;" parent="ijZoT9axjzXiMg-8ebRo-1" vertex="1">
          <mxGeometry x="160.31" y="360" width="30" height="20" as="geometry" />
        </mxCell>
        <mxCell id="-sFEfXRFQmvI-8654Sgb-16" style="edgeStyle=orthogonalEdgeStyle;rounded=0;orthogonalLoop=1;jettySize=auto;html=1;entryX=0;entryY=0.5;entryDx=0;entryDy=0;" parent="ijZoT9axjzXiMg-8ebRo-1" source="-sFEfXRFQmvI-8654Sgb-14" target="dLowDMYME99HGBobtzNQ-15" edge="1">
          <mxGeometry relative="1" as="geometry" />
        </mxCell>
        <mxCell id="-sFEfXRFQmvI-8654Sgb-14" value="Tela inicial" style="rounded=0;whiteSpace=wrap;html=1;fillColor=#d5e8d4;strokeColor=#82b366;" parent="ijZoT9axjzXiMg-8ebRo-1" vertex="1">
          <mxGeometry x="40.31" y="200" width="80" height="80" as="geometry" />
        </mxCell>
        <mxCell id="-sFEfXRFQmvI-8654Sgb-15" value="ML" style="text;html=1;align=center;verticalAlign=middle;whiteSpace=wrap;rounded=0;" parent="ijZoT9axjzXiMg-8ebRo-1" vertex="1">
          <mxGeometry x="40.31" y="200" width="20" height="20" as="geometry" />
        </mxCell>
        <mxCell id="ZbRTq6buB_a8Vku2JLAF-8" style="edgeStyle=orthogonalEdgeStyle;rounded=0;orthogonalLoop=1;jettySize=auto;html=1;exitX=1;exitY=0.5;exitDx=0;exitDy=0;entryX=0;entryY=0.5;entryDx=0;entryDy=0;" edge="1" parent="ijZoT9axjzXiMg-8ebRo-1" source="-sFEfXRFQmvI-8654Sgb-17" target="-sFEfXRFQmvI-8654Sgb-20">
          <mxGeometry relative="1" as="geometry" />
        </mxCell>
        <mxCell id="ZbRTq6buB_a8Vku2JLAF-9" style="edgeStyle=orthogonalEdgeStyle;rounded=0;orthogonalLoop=1;jettySize=auto;html=1;exitX=1;exitY=0.5;exitDx=0;exitDy=0;entryX=0;entryY=0.5;entryDx=0;entryDy=0;" edge="1" parent="ijZoT9axjzXiMg-8ebRo-1" source="-sFEfXRFQmvI-8654Sgb-17" target="-sFEfXRFQmvI-8654Sgb-27">
          <mxGeometry relative="1" as="geometry" />
        </mxCell>
        <mxCell id="ZbRTq6buB_a8Vku2JLAF-10" style="edgeStyle=orthogonalEdgeStyle;rounded=0;orthogonalLoop=1;jettySize=auto;html=1;exitX=1;exitY=0.5;exitDx=0;exitDy=0;entryX=0;entryY=0.5;entryDx=0;entryDy=0;" edge="1" parent="ijZoT9axjzXiMg-8ebRo-1" source="-sFEfXRFQmvI-8654Sgb-17" target="-sFEfXRFQmvI-8654Sgb-31">
          <mxGeometry relative="1" as="geometry" />
        </mxCell>
        <mxCell id="-sFEfXRFQmvI-8654Sgb-17" value="Tela de identificaÃ§Ã£o" style="rounded=0;whiteSpace=wrap;html=1;fillColor=#d5e8d4;strokeColor=#82b366;" parent="ijZoT9axjzXiMg-8ebRo-1" vertex="1">
          <mxGeometry x="40.31" y="520" width="80" height="80" as="geometry" />
        </mxCell>
        <mxCell id="-sFEfXRFQmvI-8654Sgb-18" value="ML" style="text;html=1;align=center;verticalAlign=middle;whiteSpace=wrap;rounded=0;" parent="ijZoT9axjzXiMg-8ebRo-1" vertex="1">
          <mxGeometry x="40.31" y="520" width="20" height="20" as="geometry" />
        </mxCell>
        <mxCell id="-sFEfXRFQmvI-8654Sgb-26" style="edgeStyle=orthogonalEdgeStyle;rounded=0;orthogonalLoop=1;jettySize=auto;html=1;entryX=0;entryY=0.5;entryDx=0;entryDy=0;" parent="ijZoT9axjzXiMg-8ebRo-1" source="-sFEfXRFQmvI-8654Sgb-20" target="-sFEfXRFQmvI-8654Sgb-24" edge="1">
          <mxGeometry relative="1" as="geometry" />
        </mxCell>
        <mxCell id="-sFEfXRFQmvI-8654Sgb-20" value="identifica-se" style="rounded=0;whiteSpace=wrap;html=1;fillColor=#dae8fc;strokeColor=#6c8ebf;" parent="ijZoT9axjzXiMg-8ebRo-1" vertex="1">
          <mxGeometry x="160.31" y="520" width="80" height="80" as="geometry" />
        </mxCell>
        <mxCell id="-sFEfXRFQmvI-8654Sgb-21" value="CMD" style="text;html=1;align=center;verticalAlign=middle;whiteSpace=wrap;rounded=0;" parent="ijZoT9axjzXiMg-8ebRo-1" vertex="1">
          <mxGeometry x="160.31" y="520" width="30" height="20" as="geometry" />
        </mxCell>
        <mxCell id="-sFEfXRFQmvI-8654Sgb-22" value="Cliente" style="rounded=0;whiteSpace=wrap;html=1;fillColor=#fff2cc;strokeColor=#d6b656;rotation=-90;" parent="ijZoT9axjzXiMg-8ebRo-1" vertex="1">
          <mxGeometry x="130.31" y="590" width="54" height="20" as="geometry" />
        </mxCell>
        <mxCell id="ZbRTq6buB_a8Vku2JLAF-12" style="edgeStyle=orthogonalEdgeStyle;rounded=0;orthogonalLoop=1;jettySize=auto;html=1;exitX=1;exitY=0.5;exitDx=0;exitDy=0;entryX=0;entryY=0.5;entryDx=0;entryDy=0;" edge="1" parent="ijZoT9axjzXiMg-8ebRo-1" source="-sFEfXRFQmvI-8654Sgb-24" target="LGjrs3-IYvRmnqfgp4Y6-6">
          <mxGeometry relative="1" as="geometry">
            <Array as="points">
              <mxPoint x="620" y="560" />
              <mxPoint x="620" y="240" />
            </Array>
          </mxGeometry>
        </mxCell>
        <mxCell id="-sFEfXRFQmvI-8654Sgb-24" value="identificaÃ§Ã£o realizada" style="rounded=0;whiteSpace=wrap;html=1;fillColor=#ffe6cc;strokeColor=#d79b00;" parent="ijZoT9axjzXiMg-8ebRo-1" vertex="1">
          <mxGeometry x="400.31" y="520" width="80" height="80" as="geometry" />
        </mxCell>
        <mxCell id="-sFEfXRFQmvI-8654Sgb-25" value="EV" style="text;html=1;align=center;verticalAlign=middle;whiteSpace=wrap;rounded=0;" parent="ijZoT9axjzXiMg-8ebRo-1" vertex="1">
          <mxGeometry x="400.31" y="520" width="20" height="20" as="geometry" />
        </mxCell>
        <mxCell id="ZbRTq6buB_a8Vku2JLAF-7" style="edgeStyle=orthogonalEdgeStyle;rounded=0;orthogonalLoop=1;jettySize=auto;html=1;exitX=1;exitY=0.5;exitDx=0;exitDy=0;entryX=0;entryY=0.5;entryDx=0;entryDy=0;" edge="1" parent="ijZoT9axjzXiMg-8ebRo-1" source="-sFEfXRFQmvI-8654Sgb-27" target="-sFEfXRFQmvI-8654Sgb-41">
          <mxGeometry relative="1" as="geometry" />
        </mxCell>
        <mxCell id="-sFEfXRFQmvI-8654Sgb-27" value="cadastra-se" style="rounded=0;whiteSpace=wrap;html=1;fillColor=#dae8fc;strokeColor=#6c8ebf;" parent="ijZoT9axjzXiMg-8ebRo-1" vertex="1">
          <mxGeometry x="160.31" y="640" width="80" height="80" as="geometry" />
        </mxCell>
        <mxCell id="-sFEfXRFQmvI-8654Sgb-28" value="CMD" style="text;html=1;align=center;verticalAlign=middle;whiteSpace=wrap;rounded=0;" parent="ijZoT9axjzXiMg-8ebRo-1" vertex="1">
          <mxGeometry x="160.31" y="640" width="30" height="20" as="geometry" />
        </mxCell>
        <mxCell id="-sFEfXRFQmvI-8654Sgb-29" value="Cliente" style="rounded=0;whiteSpace=wrap;html=1;fillColor=#fff2cc;strokeColor=#d6b656;rotation=-90;" parent="ijZoT9axjzXiMg-8ebRo-1" vertex="1">
          <mxGeometry x="130.31" y="710" width="54" height="20" as="geometry" />
        </mxCell>
        <mxCell id="LGjrs3-IYvRmnqfgp4Y6-2" style="edgeStyle=orthogonalEdgeStyle;rounded=0;orthogonalLoop=1;jettySize=auto;html=1;entryX=0;entryY=0.5;entryDx=0;entryDy=0;" parent="ijZoT9axjzXiMg-8ebRo-1" source="-sFEfXRFQmvI-8654Sgb-31" target="LGjrs3-IYvRmnqfgp4Y6-0" edge="1">
          <mxGeometry relative="1" as="geometry" />
        </mxCell>
        <mxCell id="-sFEfXRFQmvI-8654Sgb-31" value="nega identificaÃ§Ã£o" style="rounded=0;whiteSpace=wrap;html=1;fillColor=#dae8fc;strokeColor=#6c8ebf;" parent="ijZoT9axjzXiMg-8ebRo-1" vertex="1">
          <mxGeometry x="160.31" y="760" width="80" height="80" as="geometry" />
        </mxCell>
        <mxCell id="-sFEfXRFQmvI-8654Sgb-32" value="CMD" style="text;html=1;align=center;verticalAlign=middle;whiteSpace=wrap;rounded=0;" parent="ijZoT9axjzXiMg-8ebRo-1" vertex="1">
          <mxGeometry x="160.31" y="760" width="30" height="20" as="geometry" />
        </mxCell>
        <mxCell id="-sFEfXRFQmvI-8654Sgb-33" value="Cliente" style="rounded=0;whiteSpace=wrap;html=1;fillColor=#fff2cc;strokeColor=#d6b656;rotation=-90;" parent="ijZoT9axjzXiMg-8ebRo-1" vertex="1">
          <mxGeometry x="130.31" y="830" width="54" height="20" as="geometry" />
        </mxCell>
        <mxCell id="ZbRTq6buB_a8Vku2JLAF-13" style="edgeStyle=orthogonalEdgeStyle;rounded=0;orthogonalLoop=1;jettySize=auto;html=1;exitX=1;exitY=0.5;exitDx=0;exitDy=0;entryX=0;entryY=0.5;entryDx=0;entryDy=0;" edge="1" parent="ijZoT9axjzXiMg-8ebRo-1" source="-sFEfXRFQmvI-8654Sgb-41" target="LGjrs3-IYvRmnqfgp4Y6-6">
          <mxGeometry relative="1" as="geometry">
            <Array as="points">
              <mxPoint x="620" y="680" />
              <mxPoint x="620" y="240" />
            </Array>
          </mxGeometry>
        </mxCell>
        <mxCell id="-sFEfXRFQmvI-8654Sgb-41" value="cadastro e identificaÃ§Ã£o realizados" style="rounded=0;whiteSpace=wrap;html=1;fillColor=#ffe6cc;strokeColor=#d79b00;" parent="ijZoT9axjzXiMg-8ebRo-1" vertex="1">
          <mxGeometry x="400.31" y="640" width="80" height="80" as="geometry" />
        </mxCell>
        <mxCell id="-sFEfXRFQmvI-8654Sgb-42" value="EV" style="text;html=1;align=center;verticalAlign=middle;whiteSpace=wrap;rounded=0;" parent="ijZoT9axjzXiMg-8ebRo-1" vertex="1">
          <mxGeometry x="400.31" y="640" width="20" height="20" as="geometry" />
        </mxCell>
        <mxCell id="ZbRTq6buB_a8Vku2JLAF-14" style="edgeStyle=orthogonalEdgeStyle;rounded=0;orthogonalLoop=1;jettySize=auto;html=1;exitX=1;exitY=0.5;exitDx=0;exitDy=0;" edge="1" parent="ijZoT9axjzXiMg-8ebRo-1" source="LGjrs3-IYvRmnqfgp4Y6-0">
          <mxGeometry relative="1" as="geometry">
            <mxPoint x="680" y="240" as="targetPoint" />
            <Array as="points">
              <mxPoint x="620" y="800" />
              <mxPoint x="620" y="240" />
            </Array>
          </mxGeometry>
        </mxCell>
        <mxCell id="LGjrs3-IYvRmnqfgp4Y6-0" value="identificaÃ§Ã£o nÃ£o realizada" style="rounded=0;whiteSpace=wrap;html=1;fillColor=#ffe6cc;strokeColor=#d79b00;" parent="ijZoT9axjzXiMg-8ebRo-1" vertex="1">
          <mxGeometry x="400.31" y="760" width="80" height="80" as="geometry" />
        </mxCell>
        <mxCell id="LGjrs3-IYvRmnqfgp4Y6-1" value="EV" style="text;html=1;align=center;verticalAlign=middle;whiteSpace=wrap;rounded=0;" parent="ijZoT9axjzXiMg-8ebRo-1" vertex="1">
          <mxGeometry x="400.31" y="760" width="20" height="20" as="geometry" />
        </mxCell>
        <mxCell id="LGjrs3-IYvRmnqfgp4Y6-3" value="&lt;font style=&quot;font-size: 10px;&quot;&gt;cliente segue&amp;nbsp;&lt;/font&gt;&lt;div style=&quot;font-size: 10px;&quot;&gt;&lt;font style=&quot;font-size: 10px;&quot;&gt;com identificaÃ§Ã£o&amp;nbsp;&lt;/font&gt;&lt;/div&gt;&lt;div style=&quot;font-size: 10px;&quot;&gt;&lt;span style=&quot;background-color: initial;&quot;&gt;&lt;font style=&quot;font-size: 10px;&quot;&gt;anÃ´nima&lt;/font&gt;&lt;/span&gt;&lt;/div&gt;" style="rhombus;whiteSpace=wrap;html=1;fillColor=#fad9d5;strokeColor=#ae4132;" parent="ijZoT9axjzXiMg-8ebRo-1" vertex="1">
          <mxGeometry x="380.31" y="880" width="120" height="120" as="geometry" />
        </mxCell>
        <mxCell id="LGjrs3-IYvRmnqfgp4Y6-5" style="edgeStyle=orthogonalEdgeStyle;rounded=0;orthogonalLoop=1;jettySize=auto;html=1;entryX=0.5;entryY=1;entryDx=0;entryDy=0;" parent="ijZoT9axjzXiMg-8ebRo-1" source="LGjrs3-IYvRmnqfgp4Y6-4" target="LGjrs3-IYvRmnqfgp4Y6-0" edge="1">
          <mxGeometry relative="1" as="geometry" />
        </mxCell>
        <mxCell id="LGjrs3-IYvRmnqfgp4Y6-4" value="PA" style="text;html=1;align=center;verticalAlign=middle;whiteSpace=wrap;rounded=0;" parent="ijZoT9axjzXiMg-8ebRo-1" vertex="1">
          <mxGeometry x="430.31" y="880" width="20" height="20" as="geometry" />
        </mxCell>
        <mxCell id="LGjrs3-IYvRmnqfgp4Y6-14" style="edgeStyle=orthogonalEdgeStyle;rounded=0;orthogonalLoop=1;jettySize=auto;html=1;entryX=0;entryY=0.5;entryDx=0;entryDy=0;" parent="ijZoT9axjzXiMg-8ebRo-1" source="LGjrs3-IYvRmnqfgp4Y6-6" target="LGjrs3-IYvRmnqfgp4Y6-11" edge="1">
          <mxGeometry relative="1" as="geometry" />
        </mxCell>
        <mxCell id="LGjrs3-IYvRmnqfgp4Y6-6" value="Tela com lista de lanches" style="rounded=0;whiteSpace=wrap;html=1;fillColor=#d5e8d4;strokeColor=#82b366;" parent="ijZoT9axjzXiMg-8ebRo-1" vertex="1">
          <mxGeometry x="679.68" y="200" width="80" height="80" as="geometry" />
        </mxCell>
        <mxCell id="LGjrs3-IYvRmnqfgp4Y6-7" value="ML" style="text;html=1;align=center;verticalAlign=middle;whiteSpace=wrap;rounded=0;" parent="ijZoT9axjzXiMg-8ebRo-1" vertex="1">
          <mxGeometry x="679.68" y="200" width="20" height="20" as="geometry" />
        </mxCell>
        <mxCell id="LGjrs3-IYvRmnqfgp4Y6-17" style="edgeStyle=orthogonalEdgeStyle;rounded=0;orthogonalLoop=1;jettySize=auto;html=1;entryX=0;entryY=0.5;entryDx=0;entryDy=0;" parent="ijZoT9axjzXiMg-8ebRo-1" source="LGjrs3-IYvRmnqfgp4Y6-11" target="LGjrs3-IYvRmnqfgp4Y6-15" edge="1">
          <mxGeometry relative="1" as="geometry" />
        </mxCell>
        <mxCell id="LGjrs3-IYvRmnqfgp4Y6-11" value="seleciona lanche" style="rounded=0;whiteSpace=wrap;html=1;fillColor=#dae8fc;strokeColor=#6c8ebf;" parent="ijZoT9axjzXiMg-8ebRo-1" vertex="1">
          <mxGeometry x="799.68" y="200" width="80" height="80" as="geometry" />
        </mxCell>
        <mxCell id="LGjrs3-IYvRmnqfgp4Y6-12" value="CMD" style="text;html=1;align=center;verticalAlign=middle;whiteSpace=wrap;rounded=0;" parent="ijZoT9axjzXiMg-8ebRo-1" vertex="1">
          <mxGeometry x="799.68" y="200" width="30" height="20" as="geometry" />
        </mxCell>
        <mxCell id="LGjrs3-IYvRmnqfgp4Y6-13" value="Cliente" style="rounded=0;whiteSpace=wrap;html=1;fillColor=#fff2cc;strokeColor=#d6b656;rotation=-90;" parent="ijZoT9axjzXiMg-8ebRo-1" vertex="1">
          <mxGeometry x="769.68" y="270" width="54" height="20" as="geometry" />
        </mxCell>
        <mxCell id="E1v5joByqu3OAqutx55n-28" style="edgeStyle=orthogonalEdgeStyle;rounded=0;orthogonalLoop=1;jettySize=auto;html=1;entryX=0;entryY=0.5;entryDx=0;entryDy=0;" parent="ijZoT9axjzXiMg-8ebRo-1" source="LGjrs3-IYvRmnqfgp4Y6-15" target="cp0iigBwZGvijFn2ULiu-0" edge="1">
          <mxGeometry relative="1" as="geometry" />
        </mxCell>
        <mxCell id="LGjrs3-IYvRmnqfgp4Y6-15" value="lanche selecionado" style="rounded=0;whiteSpace=wrap;html=1;fillColor=#ffe6cc;strokeColor=#d79b00;" parent="ijZoT9axjzXiMg-8ebRo-1" vertex="1">
          <mxGeometry x="1039.6799999999998" y="200" width="80" height="80" as="geometry" />
        </mxCell>
        <mxCell id="LGjrs3-IYvRmnqfgp4Y6-16" value="EV" style="text;html=1;align=center;verticalAlign=middle;whiteSpace=wrap;rounded=0;" parent="ijZoT9axjzXiMg-8ebRo-1" vertex="1">
          <mxGeometry x="1039.6799999999998" y="200" width="20" height="20" as="geometry" />
        </mxCell>
        <mxCell id="LGjrs3-IYvRmnqfgp4Y6-25" style="edgeStyle=orthogonalEdgeStyle;rounded=0;orthogonalLoop=1;jettySize=auto;html=1;entryX=0;entryY=0.5;entryDx=0;entryDy=0;" parent="ijZoT9axjzXiMg-8ebRo-1" source="LGjrs3-IYvRmnqfgp4Y6-18" target="LGjrs3-IYvRmnqfgp4Y6-20" edge="1">
          <mxGeometry relative="1" as="geometry" />
        </mxCell>
        <mxCell id="LGjrs3-IYvRmnqfgp4Y6-18" value="Tela com lista de acompa-nhamentos" style="rounded=0;whiteSpace=wrap;html=1;fillColor=#d5e8d4;strokeColor=#82b366;" parent="ijZoT9axjzXiMg-8ebRo-1" vertex="1">
          <mxGeometry x="679.68" y="520" width="80" height="80" as="geometry" />
        </mxCell>
        <mxCell id="LGjrs3-IYvRmnqfgp4Y6-19" value="ML" style="text;html=1;align=center;verticalAlign=middle;whiteSpace=wrap;rounded=0;" parent="ijZoT9axjzXiMg-8ebRo-1" vertex="1">
          <mxGeometry x="679.68" y="520" width="20" height="20" as="geometry" />
        </mxCell>
        <mxCell id="dLowDMYME99HGBobtzNQ-5" value="" style="endArrow=none;html=1;rounded=0;strokeWidth=3;" parent="ijZoT9axjzXiMg-8ebRo-1" edge="1">
          <mxGeometry width="50" height="50" relative="1" as="geometry">
            <mxPoint x="640" y="1720" as="sourcePoint" />
            <mxPoint x="640" y="40" as="targetPoint" />
          </mxGeometry>
        </mxCell>
        <mxCell id="LGjrs3-IYvRmnqfgp4Y6-26" style="edgeStyle=orthogonalEdgeStyle;rounded=0;orthogonalLoop=1;jettySize=auto;html=1;entryX=0;entryY=0.5;entryDx=0;entryDy=0;" parent="ijZoT9axjzXiMg-8ebRo-1" source="LGjrs3-IYvRmnqfgp4Y6-20" target="LGjrs3-IYvRmnqfgp4Y6-23" edge="1">
          <mxGeometry relative="1" as="geometry" />
        </mxCell>
        <mxCell id="LGjrs3-IYvRmnqfgp4Y6-20" value="seleciona acompa-nhamento" style="rounded=0;whiteSpace=wrap;html=1;fillColor=#dae8fc;strokeColor=#6c8ebf;" parent="ijZoT9axjzXiMg-8ebRo-1" vertex="1">
          <mxGeometry x="799.68" y="520" width="80" height="80" as="geometry" />
        </mxCell>
        <mxCell id="LGjrs3-IYvRmnqfgp4Y6-21" value="CMD" style="text;html=1;align=center;verticalAlign=middle;whiteSpace=wrap;rounded=0;" parent="ijZoT9axjzXiMg-8ebRo-1" vertex="1">
          <mxGeometry x="799.68" y="520" width="30" height="20" as="geometry" />
        </mxCell>
        <mxCell id="LGjrs3-IYvRmnqfgp4Y6-22" value="Cliente" style="rounded=0;whiteSpace=wrap;html=1;fillColor=#fff2cc;strokeColor=#d6b656;rotation=-90;" parent="ijZoT9axjzXiMg-8ebRo-1" vertex="1">
          <mxGeometry x="769.68" y="590" width="54" height="20" as="geometry" />
        </mxCell>
        <mxCell id="E1v5joByqu3OAqutx55n-34" style="edgeStyle=orthogonalEdgeStyle;rounded=0;orthogonalLoop=1;jettySize=auto;html=1;entryX=0;entryY=0.5;entryDx=0;entryDy=0;" parent="ijZoT9axjzXiMg-8ebRo-1" source="LGjrs3-IYvRmnqfgp4Y6-23" target="E1v5joByqu3OAqutx55n-4" edge="1">
          <mxGeometry relative="1" as="geometry" />
        </mxCell>
        <mxCell id="LGjrs3-IYvRmnqfgp4Y6-23" value="acompa-nhamento selecionado" style="rounded=0;whiteSpace=wrap;html=1;fillColor=#ffe6cc;strokeColor=#d79b00;" parent="ijZoT9axjzXiMg-8ebRo-1" vertex="1">
          <mxGeometry x="1039.6799999999998" y="520" width="80" height="80" as="geometry" />
        </mxCell>
        <mxCell id="LGjrs3-IYvRmnqfgp4Y6-24" value="EV" style="text;html=1;align=center;verticalAlign=middle;whiteSpace=wrap;rounded=0;" parent="ijZoT9axjzXiMg-8ebRo-1" vertex="1">
          <mxGeometry x="1039.6799999999998" y="520" width="20" height="20" as="geometry" />
        </mxCell>
        <mxCell id="LGjrs3-IYvRmnqfgp4Y6-29" style="edgeStyle=orthogonalEdgeStyle;rounded=0;orthogonalLoop=1;jettySize=auto;html=1;entryX=0;entryY=0.5;entryDx=0;entryDy=0;" parent="ijZoT9axjzXiMg-8ebRo-1" source="LGjrs3-IYvRmnqfgp4Y6-30" target="LGjrs3-IYvRmnqfgp4Y6-33" edge="1">
          <mxGeometry relative="1" as="geometry" />
        </mxCell>
        <mxCell id="LGjrs3-IYvRmnqfgp4Y6-30" value="Tela com lista de bebidas" style="rounded=0;whiteSpace=wrap;html=1;fillColor=#d5e8d4;strokeColor=#82b366;" parent="ijZoT9axjzXiMg-8ebRo-1" vertex="1">
          <mxGeometry x="679.68" y="840" width="80" height="80" as="geometry" />
        </mxCell>
        <mxCell id="LGjrs3-IYvRmnqfgp4Y6-31" value="ML" style="text;html=1;align=center;verticalAlign=middle;whiteSpace=wrap;rounded=0;" parent="ijZoT9axjzXiMg-8ebRo-1" vertex="1">
          <mxGeometry x="679.68" y="840" width="20" height="20" as="geometry" />
        </mxCell>
        <mxCell id="LGjrs3-IYvRmnqfgp4Y6-32" style="edgeStyle=orthogonalEdgeStyle;rounded=0;orthogonalLoop=1;jettySize=auto;html=1;entryX=0;entryY=0.5;entryDx=0;entryDy=0;" parent="ijZoT9axjzXiMg-8ebRo-1" source="LGjrs3-IYvRmnqfgp4Y6-33" target="LGjrs3-IYvRmnqfgp4Y6-36" edge="1">
          <mxGeometry relative="1" as="geometry" />
        </mxCell>
        <mxCell id="LGjrs3-IYvRmnqfgp4Y6-33" value="seleciona bebida" style="rounded=0;whiteSpace=wrap;html=1;fillColor=#dae8fc;strokeColor=#6c8ebf;" parent="ijZoT9axjzXiMg-8ebRo-1" vertex="1">
          <mxGeometry x="799.68" y="840" width="80" height="80" as="geometry" />
        </mxCell>
        <mxCell id="LGjrs3-IYvRmnqfgp4Y6-34" value="CMD" style="text;html=1;align=center;verticalAlign=middle;whiteSpace=wrap;rounded=0;" parent="ijZoT9axjzXiMg-8ebRo-1" vertex="1">
          <mxGeometry x="799.68" y="840" width="30" height="20" as="geometry" />
        </mxCell>
        <mxCell id="LGjrs3-IYvRmnqfgp4Y6-35" value="Cliente" style="rounded=0;whiteSpace=wrap;html=1;fillColor=#fff2cc;strokeColor=#d6b656;rotation=-90;" parent="ijZoT9axjzXiMg-8ebRo-1" vertex="1">
          <mxGeometry x="769.68" y="910" width="54" height="20" as="geometry" />
        </mxCell>
        <mxCell id="E1v5joByqu3OAqutx55n-39" style="edgeStyle=orthogonalEdgeStyle;rounded=0;orthogonalLoop=1;jettySize=auto;html=1;entryX=0;entryY=0.5;entryDx=0;entryDy=0;" parent="ijZoT9axjzXiMg-8ebRo-1" source="LGjrs3-IYvRmnqfgp4Y6-36" target="E1v5joByqu3OAqutx55n-10" edge="1">
          <mxGeometry relative="1" as="geometry" />
        </mxCell>
        <mxCell id="LGjrs3-IYvRmnqfgp4Y6-36" value="bebida selecionada" style="rounded=0;whiteSpace=wrap;html=1;fillColor=#ffe6cc;strokeColor=#d79b00;" parent="ijZoT9axjzXiMg-8ebRo-1" vertex="1">
          <mxGeometry x="1039.6799999999998" y="840" width="80" height="80" as="geometry" />
        </mxCell>
        <mxCell id="LGjrs3-IYvRmnqfgp4Y6-37" value="EV" style="text;html=1;align=center;verticalAlign=middle;whiteSpace=wrap;rounded=0;" parent="ijZoT9axjzXiMg-8ebRo-1" vertex="1">
          <mxGeometry x="1039.6799999999998" y="840" width="20" height="20" as="geometry" />
        </mxCell>
        <mxCell id="LGjrs3-IYvRmnqfgp4Y6-38" value="" style="rounded=0;whiteSpace=wrap;html=1;fillColor=#fff2cc;strokeColor=#d6b656;" parent="ijZoT9axjzXiMg-8ebRo-1" vertex="1">
          <mxGeometry x="919.68" y="200" width="80" height="1360" as="geometry" />
        </mxCell>
        <mxCell id="LGjrs3-IYvRmnqfgp4Y6-41" value="AG" style="text;html=1;align=center;verticalAlign=middle;whiteSpace=wrap;rounded=0;" parent="ijZoT9axjzXiMg-8ebRo-1" vertex="1">
          <mxGeometry x="919.68" y="200" width="20" height="20" as="geometry" />
        </mxCell>
        <mxCell id="LGjrs3-IYvRmnqfgp4Y6-42" value="&lt;font style=&quot;font-size: 20px;&quot;&gt;Pedido&lt;/font&gt;" style="text;html=1;align=center;verticalAlign=middle;whiteSpace=wrap;rounded=0;rotation=-90;" parent="ijZoT9axjzXiMg-8ebRo-1" vertex="1">
          <mxGeometry x="280.31" y="839.38" width="1358.75" height="80" as="geometry" />
        </mxCell>
        <mxCell id="LGjrs3-IYvRmnqfgp4Y6-43" style="edgeStyle=orthogonalEdgeStyle;rounded=0;orthogonalLoop=1;jettySize=auto;html=1;entryX=0;entryY=0.5;entryDx=0;entryDy=0;" parent="ijZoT9axjzXiMg-8ebRo-1" source="LGjrs3-IYvRmnqfgp4Y6-44" target="LGjrs3-IYvRmnqfgp4Y6-47" edge="1">
          <mxGeometry relative="1" as="geometry" />
        </mxCell>
        <mxCell id="LGjrs3-IYvRmnqfgp4Y6-44" value="Tela com lista de sobremesas" style="rounded=0;whiteSpace=wrap;html=1;fillColor=#d5e8d4;strokeColor=#82b366;" parent="ijZoT9axjzXiMg-8ebRo-1" vertex="1">
          <mxGeometry x="679.68" y="1160" width="80" height="80" as="geometry" />
        </mxCell>
        <mxCell id="LGjrs3-IYvRmnqfgp4Y6-45" value="ML" style="text;html=1;align=center;verticalAlign=middle;whiteSpace=wrap;rounded=0;" parent="ijZoT9axjzXiMg-8ebRo-1" vertex="1">
          <mxGeometry x="679.68" y="1160" width="20" height="20" as="geometry" />
        </mxCell>
        <mxCell id="LGjrs3-IYvRmnqfgp4Y6-47" value="seleciona sobremesa" style="rounded=0;whiteSpace=wrap;html=1;fillColor=#dae8fc;strokeColor=#6c8ebf;" parent="ijZoT9axjzXiMg-8ebRo-1" vertex="1">
          <mxGeometry x="799.68" y="1160" width="80" height="80" as="geometry" />
        </mxCell>
        <mxCell id="LGjrs3-IYvRmnqfgp4Y6-48" value="CMD" style="text;html=1;align=center;verticalAlign=middle;whiteSpace=wrap;rounded=0;" parent="ijZoT9axjzXiMg-8ebRo-1" vertex="1">
          <mxGeometry x="799.68" y="1160" width="30" height="20" as="geometry" />
        </mxCell>
        <mxCell id="LGjrs3-IYvRmnqfgp4Y6-49" value="Cliente" style="rounded=0;whiteSpace=wrap;html=1;fillColor=#fff2cc;strokeColor=#d6b656;rotation=-90;" parent="ijZoT9axjzXiMg-8ebRo-1" vertex="1">
          <mxGeometry x="769.68" y="1230" width="54" height="20" as="geometry" />
        </mxCell>
        <mxCell id="E1v5joByqu3OAqutx55n-42" style="edgeStyle=orthogonalEdgeStyle;rounded=0;orthogonalLoop=1;jettySize=auto;html=1;entryX=0;entryY=0.5;entryDx=0;entryDy=0;" parent="ijZoT9axjzXiMg-8ebRo-1" source="LGjrs3-IYvRmnqfgp4Y6-50" target="E1v5joByqu3OAqutx55n-16" edge="1">
          <mxGeometry relative="1" as="geometry" />
        </mxCell>
        <mxCell id="LGjrs3-IYvRmnqfgp4Y6-50" value="sobremesa selecionada" style="rounded=0;whiteSpace=wrap;html=1;fillColor=#ffe6cc;strokeColor=#d79b00;" parent="ijZoT9axjzXiMg-8ebRo-1" vertex="1">
          <mxGeometry x="1039.6799999999998" y="1160" width="80" height="80" as="geometry" />
        </mxCell>
        <mxCell id="LGjrs3-IYvRmnqfgp4Y6-51" value="EV" style="text;html=1;align=center;verticalAlign=middle;whiteSpace=wrap;rounded=0;" parent="ijZoT9axjzXiMg-8ebRo-1" vertex="1">
          <mxGeometry x="1039.6799999999998" y="1160" width="20" height="20" as="geometry" />
        </mxCell>
        <mxCell id="LGjrs3-IYvRmnqfgp4Y6-59" style="edgeStyle=orthogonalEdgeStyle;rounded=0;orthogonalLoop=1;jettySize=auto;html=1;entryX=0;entryY=0.5;entryDx=0;entryDy=0;" parent="ijZoT9axjzXiMg-8ebRo-1" source="LGjrs3-IYvRmnqfgp4Y6-54" target="LGjrs3-IYvRmnqfgp4Y6-56" edge="1">
          <mxGeometry relative="1" as="geometry" />
        </mxCell>
        <mxCell id="LGjrs3-IYvRmnqfgp4Y6-54" value="Tela com resumo do pedido" style="rounded=0;whiteSpace=wrap;html=1;fillColor=#d5e8d4;strokeColor=#82b366;" parent="ijZoT9axjzXiMg-8ebRo-1" vertex="1">
          <mxGeometry x="679.68" y="1480" width="80" height="80" as="geometry" />
        </mxCell>
        <mxCell id="LGjrs3-IYvRmnqfgp4Y6-55" value="ML" style="text;html=1;align=center;verticalAlign=middle;whiteSpace=wrap;rounded=0;" parent="ijZoT9axjzXiMg-8ebRo-1" vertex="1">
          <mxGeometry x="679.68" y="1480" width="20" height="20" as="geometry" />
        </mxCell>
        <mxCell id="LGjrs3-IYvRmnqfgp4Y6-56" value="confirma pedido" style="rounded=0;whiteSpace=wrap;html=1;fillColor=#dae8fc;strokeColor=#6c8ebf;" parent="ijZoT9axjzXiMg-8ebRo-1" vertex="1">
          <mxGeometry x="799.68" y="1480" width="80" height="80" as="geometry" />
        </mxCell>
        <mxCell id="LGjrs3-IYvRmnqfgp4Y6-57" value="CMD" style="text;html=1;align=center;verticalAlign=middle;whiteSpace=wrap;rounded=0;" parent="ijZoT9axjzXiMg-8ebRo-1" vertex="1">
          <mxGeometry x="799.68" y="1480" width="30" height="20" as="geometry" />
        </mxCell>
        <mxCell id="LGjrs3-IYvRmnqfgp4Y6-58" value="Cliente" style="rounded=0;whiteSpace=wrap;html=1;fillColor=#fff2cc;strokeColor=#d6b656;rotation=-90;" parent="ijZoT9axjzXiMg-8ebRo-1" vertex="1">
          <mxGeometry x="769.68" y="1550" width="54" height="20" as="geometry" />
        </mxCell>
        <mxCell id="LGjrs3-IYvRmnqfgp4Y6-60" value="pedido confirmado" style="rounded=0;whiteSpace=wrap;html=1;fillColor=#ffe6cc;strokeColor=#d79b00;" parent="ijZoT9axjzXiMg-8ebRo-1" vertex="1">
          <mxGeometry x="1039.6799999999998" y="1480" width="80" height="80" as="geometry" />
        </mxCell>
        <mxCell id="LGjrs3-IYvRmnqfgp4Y6-61" value="EV" style="text;html=1;align=center;verticalAlign=middle;whiteSpace=wrap;rounded=0;" parent="ijZoT9axjzXiMg-8ebRo-1" vertex="1">
          <mxGeometry x="1039.6799999999998" y="1480" width="20" height="20" as="geometry" />
        </mxCell>
        <mxCell id="LGjrs3-IYvRmnqfgp4Y6-65" value="&lt;font style=&quot;font-size: 10px;&quot;&gt;pedido pode ser cancelado a qualquer momento&lt;/font&gt;" style="rhombus;whiteSpace=wrap;html=1;fillColor=#fad9d5;strokeColor=#ae4132;" parent="ijZoT9axjzXiMg-8ebRo-1" vertex="1">
          <mxGeometry x="659.68" y="1600" width="120" height="120" as="geometry" />
        </mxCell>
        <mxCell id="LGjrs3-IYvRmnqfgp4Y6-67" style="edgeStyle=orthogonalEdgeStyle;rounded=0;orthogonalLoop=1;jettySize=auto;html=1;exitX=0.5;exitY=0;exitDx=0;exitDy=0;entryX=0.5;entryY=1;entryDx=0;entryDy=0;" parent="ijZoT9axjzXiMg-8ebRo-1" source="LGjrs3-IYvRmnqfgp4Y6-66" target="LGjrs3-IYvRmnqfgp4Y6-54" edge="1">
          <mxGeometry relative="1" as="geometry" />
        </mxCell>
        <mxCell id="LGjrs3-IYvRmnqfgp4Y6-66" value="PA" style="text;html=1;align=center;verticalAlign=middle;whiteSpace=wrap;rounded=0;" parent="ijZoT9axjzXiMg-8ebRo-1" vertex="1">
          <mxGeometry x="709.68" y="1600" width="20" height="20" as="geometry" />
        </mxCell>
        <mxCell id="LGjrs3-IYvRmnqfgp4Y6-70" style="edgeStyle=orthogonalEdgeStyle;rounded=0;orthogonalLoop=1;jettySize=auto;html=1;entryX=0.5;entryY=0;entryDx=0;entryDy=0;" parent="ijZoT9axjzXiMg-8ebRo-1" source="LGjrs3-IYvRmnqfgp4Y6-68" target="LGjrs3-IYvRmnqfgp4Y6-11" edge="1">
          <mxGeometry relative="1" as="geometry" />
        </mxCell>
        <mxCell id="LGjrs3-IYvRmnqfgp4Y6-68" value="&lt;font style=&quot;font-size: 10px;&quot;&gt;quantidade pode ser alterada&lt;/font&gt;" style="rhombus;whiteSpace=wrap;html=1;fillColor=#fad9d5;strokeColor=#ae4132;" parent="ijZoT9axjzXiMg-8ebRo-1" vertex="1">
          <mxGeometry x="779.68" y="40" width="120" height="120" as="geometry" />
        </mxCell>
        <mxCell id="LGjrs3-IYvRmnqfgp4Y6-69" value="PA" style="text;html=1;align=center;verticalAlign=middle;whiteSpace=wrap;rounded=0;" parent="ijZoT9axjzXiMg-8ebRo-1" vertex="1">
          <mxGeometry x="829.68" y="40" width="20" height="20" as="geometry" />
        </mxCell>
        <mxCell id="LGjrs3-IYvRmnqfgp4Y6-79" style="edgeStyle=orthogonalEdgeStyle;rounded=0;orthogonalLoop=1;jettySize=auto;html=1;entryX=0;entryY=0.5;entryDx=0;entryDy=0;" parent="ijZoT9axjzXiMg-8ebRo-1" source="LGjrs3-IYvRmnqfgp4Y6-71" target="LGjrs3-IYvRmnqfgp4Y6-76" edge="1">
          <mxGeometry relative="1" as="geometry" />
        </mxCell>
        <mxCell id="LGjrs3-IYvRmnqfgp4Y6-71" value="Tela de pagamento com QRCode" style="rounded=0;whiteSpace=wrap;html=1;fillColor=#d5e8d4;strokeColor=#82b366;" parent="ijZoT9axjzXiMg-8ebRo-1" vertex="1">
          <mxGeometry x="1320" y="360" width="80" height="80" as="geometry" />
        </mxCell>
        <mxCell id="LGjrs3-IYvRmnqfgp4Y6-72" value="ML" style="text;html=1;align=center;verticalAlign=middle;whiteSpace=wrap;rounded=0;" parent="ijZoT9axjzXiMg-8ebRo-1" vertex="1">
          <mxGeometry x="1320" y="360" width="20" height="20" as="geometry" />
        </mxCell>
        <mxCell id="E1v5joByqu3OAqutx55n-60" style="edgeStyle=orthogonalEdgeStyle;rounded=0;orthogonalLoop=1;jettySize=auto;html=1;entryX=0;entryY=0.5;entryDx=0;entryDy=0;" parent="ijZoT9axjzXiMg-8ebRo-1" source="LGjrs3-IYvRmnqfgp4Y6-76" target="LGjrs3-IYvRmnqfgp4Y6-83" edge="1">
          <mxGeometry relative="1" as="geometry" />
        </mxCell>
        <mxCell id="LGjrs3-IYvRmnqfgp4Y6-76" value="efetua pagamento" style="rounded=0;whiteSpace=wrap;html=1;fillColor=#dae8fc;strokeColor=#6c8ebf;" parent="ijZoT9axjzXiMg-8ebRo-1" vertex="1">
          <mxGeometry x="1440" y="360" width="80" height="80" as="geometry" />
        </mxCell>
        <mxCell id="LGjrs3-IYvRmnqfgp4Y6-77" value="CMD" style="text;html=1;align=center;verticalAlign=middle;whiteSpace=wrap;rounded=0;" parent="ijZoT9axjzXiMg-8ebRo-1" vertex="1">
          <mxGeometry x="1440" y="360" width="30" height="20" as="geometry" />
        </mxCell>
        <mxCell id="LGjrs3-IYvRmnqfgp4Y6-78" value="Cliente" style="rounded=0;whiteSpace=wrap;html=1;fillColor=#fff2cc;strokeColor=#d6b656;rotation=-90;" parent="ijZoT9axjzXiMg-8ebRo-1" vertex="1">
          <mxGeometry x="1410" y="430" width="54" height="20" as="geometry" />
        </mxCell>
        <mxCell id="ZbRTq6buB_a8Vku2JLAF-15" style="edgeStyle=orthogonalEdgeStyle;rounded=0;orthogonalLoop=1;jettySize=auto;html=1;exitX=0.5;exitY=1;exitDx=0;exitDy=0;entryX=0.5;entryY=0;entryDx=0;entryDy=0;" edge="1" parent="ijZoT9axjzXiMg-8ebRo-1" source="LGjrs3-IYvRmnqfgp4Y6-80" target="LGjrs3-IYvRmnqfgp4Y6-87">
          <mxGeometry relative="1" as="geometry" />
        </mxCell>
        <mxCell id="LGjrs3-IYvRmnqfgp4Y6-80" value="pagamento efetuado" style="rounded=0;whiteSpace=wrap;html=1;fillColor=#ffe6cc;strokeColor=#d79b00;" parent="ijZoT9axjzXiMg-8ebRo-1" vertex="1">
          <mxGeometry x="1800" y="360" width="80" height="80" as="geometry" />
        </mxCell>
        <mxCell id="LGjrs3-IYvRmnqfgp4Y6-81" value="EV" style="text;html=1;align=center;verticalAlign=middle;whiteSpace=wrap;rounded=0;" parent="ijZoT9axjzXiMg-8ebRo-1" vertex="1">
          <mxGeometry x="1800" y="360" width="20" height="20" as="geometry" />
        </mxCell>
        <mxCell id="LGjrs3-IYvRmnqfgp4Y6-86" style="edgeStyle=orthogonalEdgeStyle;rounded=0;orthogonalLoop=1;jettySize=auto;html=1;entryX=0;entryY=0.5;entryDx=0;entryDy=0;" parent="ijZoT9axjzXiMg-8ebRo-1" source="LGjrs3-IYvRmnqfgp4Y6-83" target="LGjrs3-IYvRmnqfgp4Y6-80" edge="1">
          <mxGeometry relative="1" as="geometry" />
        </mxCell>
        <mxCell id="LGjrs3-IYvRmnqfgp4Y6-83" value="Sistema&lt;span style=&quot;background-color: initial;&quot;&gt;&amp;nbsp;de pagamento Mercado Pago&lt;/span&gt;" style="rounded=0;whiteSpace=wrap;html=1;fillColor=#fad9d5;strokeColor=#ae4132;" parent="ijZoT9axjzXiMg-8ebRo-1" vertex="1">
          <mxGeometry x="1680" y="360" width="80" height="80" as="geometry" />
        </mxCell>
        <mxCell id="LGjrs3-IYvRmnqfgp4Y6-84" value="SE" style="text;html=1;align=center;verticalAlign=middle;whiteSpace=wrap;rounded=0;" parent="ijZoT9axjzXiMg-8ebRo-1" vertex="1">
          <mxGeometry x="1680" y="360" width="20" height="20" as="geometry" />
        </mxCell>
        <mxCell id="LGjrs3-IYvRmnqfgp4Y6-87" value="enviar pedido para cozinha" style="rounded=0;whiteSpace=wrap;html=1;fillColor=#e1d5e7;strokeColor=#9673a6;" parent="ijZoT9axjzXiMg-8ebRo-1" vertex="1">
          <mxGeometry x="1800" y="480" width="80" height="80" as="geometry" />
        </mxCell>
        <mxCell id="LGjrs3-IYvRmnqfgp4Y6-88" value="POL" style="text;html=1;align=center;verticalAlign=middle;whiteSpace=wrap;rounded=0;" parent="ijZoT9axjzXiMg-8ebRo-1" vertex="1">
          <mxGeometry x="1800" y="480" width="30" height="20" as="geometry" />
        </mxCell>
        <mxCell id="LGjrs3-IYvRmnqfgp4Y6-90" value="Pagamento" style="text;html=1;align=center;verticalAlign=middle;whiteSpace=wrap;rounded=0;rotation=-90;fontSize=20;" parent="ijZoT9axjzXiMg-8ebRo-1" vertex="1">
          <mxGeometry x="1850" y="90" width="100" height="20" as="geometry" />
        </mxCell>
        <mxCell id="cp0iigBwZGvijFn2ULiu-0" value="adicionar lanche ao pedido" style="rounded=0;whiteSpace=wrap;html=1;fillColor=#e1d5e7;strokeColor=#9673a6;" parent="ijZoT9axjzXiMg-8ebRo-1" vertex="1">
          <mxGeometry x="1159.68" y="200" width="80" height="80" as="geometry" />
        </mxCell>
        <mxCell id="cp0iigBwZGvijFn2ULiu-1" value="POL" style="text;html=1;align=center;verticalAlign=middle;whiteSpace=wrap;rounded=0;" parent="ijZoT9axjzXiMg-8ebRo-1" vertex="1">
          <mxGeometry x="1159.68" y="200" width="30" height="20" as="geometry" />
        </mxCell>
        <mxCell id="E1v5joByqu3OAqutx55n-0" value="adiciona lanche ao pedido" style="rounded=0;whiteSpace=wrap;html=1;fillColor=#dae8fc;strokeColor=#6c8ebf;" parent="ijZoT9axjzXiMg-8ebRo-1" vertex="1">
          <mxGeometry x="799.68" y="360" width="80" height="80" as="geometry" />
        </mxCell>
        <mxCell id="E1v5joByqu3OAqutx55n-1" value="CMD" style="text;html=1;align=center;verticalAlign=middle;whiteSpace=wrap;rounded=0;" parent="ijZoT9axjzXiMg-8ebRo-1" vertex="1">
          <mxGeometry x="799.68" y="360" width="30" height="20" as="geometry" />
        </mxCell>
        <mxCell id="E1v5joByqu3OAqutx55n-2" value="lanche adicionado ao pedido" style="rounded=0;whiteSpace=wrap;html=1;fillColor=#ffe6cc;strokeColor=#d79b00;" parent="ijZoT9axjzXiMg-8ebRo-1" vertex="1">
          <mxGeometry x="1039.6799999999998" y="360" width="80" height="80" as="geometry" />
        </mxCell>
        <mxCell id="E1v5joByqu3OAqutx55n-3" value="EV" style="text;html=1;align=center;verticalAlign=middle;whiteSpace=wrap;rounded=0;" parent="ijZoT9axjzXiMg-8ebRo-1" vertex="1">
          <mxGeometry x="1039.6799999999998" y="360" width="20" height="20" as="geometry" />
        </mxCell>
        <mxCell id="E1v5joByqu3OAqutx55n-4" value="adicionar acompa-nhamento ao pedido" style="rounded=0;whiteSpace=wrap;html=1;fillColor=#e1d5e7;strokeColor=#9673a6;" parent="ijZoT9axjzXiMg-8ebRo-1" vertex="1">
          <mxGeometry x="1159.68" y="520" width="80" height="80" as="geometry" />
        </mxCell>
        <mxCell id="E1v5joByqu3OAqutx55n-5" value="POL" style="text;html=1;align=center;verticalAlign=middle;whiteSpace=wrap;rounded=0;" parent="ijZoT9axjzXiMg-8ebRo-1" vertex="1">
          <mxGeometry x="1159.68" y="520" width="30" height="20" as="geometry" />
        </mxCell>
        <mxCell id="E1v5joByqu3OAqutx55n-6" value="adiciona acompa-nhamento ao pedido" style="rounded=0;whiteSpace=wrap;html=1;fillColor=#dae8fc;strokeColor=#6c8ebf;" parent="ijZoT9axjzXiMg-8ebRo-1" vertex="1">
          <mxGeometry x="799.68" y="680" width="80" height="80" as="geometry" />
        </mxCell>
        <mxCell id="E1v5joByqu3OAqutx55n-7" value="CMD" style="text;html=1;align=center;verticalAlign=middle;whiteSpace=wrap;rounded=0;" parent="ijZoT9axjzXiMg-8ebRo-1" vertex="1">
          <mxGeometry x="799.68" y="680" width="30" height="20" as="geometry" />
        </mxCell>
        <mxCell id="E1v5joByqu3OAqutx55n-8" value="acompa-nhamento adicionado ao pedido" style="rounded=0;whiteSpace=wrap;html=1;fillColor=#ffe6cc;strokeColor=#d79b00;" parent="ijZoT9axjzXiMg-8ebRo-1" vertex="1">
          <mxGeometry x="1039.6799999999998" y="680" width="80" height="80" as="geometry" />
        </mxCell>
        <mxCell id="E1v5joByqu3OAqutx55n-9" value="EV" style="text;html=1;align=center;verticalAlign=middle;whiteSpace=wrap;rounded=0;" parent="ijZoT9axjzXiMg-8ebRo-1" vertex="1">
          <mxGeometry x="1039.6799999999998" y="680" width="20" height="20" as="geometry" />
        </mxCell>
        <mxCell id="E1v5joByqu3OAqutx55n-10" value="adicionar bebida ao pedido" style="rounded=0;whiteSpace=wrap;html=1;fillColor=#e1d5e7;strokeColor=#9673a6;" parent="ijZoT9axjzXiMg-8ebRo-1" vertex="1">
          <mxGeometry x="1159.68" y="840" width="80" height="80" as="geometry" />
        </mxCell>
        <mxCell id="E1v5joByqu3OAqutx55n-11" value="POL" style="text;html=1;align=center;verticalAlign=middle;whiteSpace=wrap;rounded=0;" parent="ijZoT9axjzXiMg-8ebRo-1" vertex="1">
          <mxGeometry x="1159.68" y="840" width="30" height="20" as="geometry" />
        </mxCell>
        <mxCell id="E1v5joByqu3OAqutx55n-12" value="adiciona bebida ao pedido" style="rounded=0;whiteSpace=wrap;html=1;fillColor=#dae8fc;strokeColor=#6c8ebf;" parent="ijZoT9axjzXiMg-8ebRo-1" vertex="1">
          <mxGeometry x="799.68" y="1000" width="80" height="80" as="geometry" />
        </mxCell>
        <mxCell id="E1v5joByqu3OAqutx55n-13" value="CMD" style="text;html=1;align=center;verticalAlign=middle;whiteSpace=wrap;rounded=0;" parent="ijZoT9axjzXiMg-8ebRo-1" vertex="1">
          <mxGeometry x="799.68" y="1000" width="30" height="20" as="geometry" />
        </mxCell>
        <mxCell id="E1v5joByqu3OAqutx55n-14" value="bebida adicionada ao pedido" style="rounded=0;whiteSpace=wrap;html=1;fillColor=#ffe6cc;strokeColor=#d79b00;" parent="ijZoT9axjzXiMg-8ebRo-1" vertex="1">
          <mxGeometry x="1039.6799999999998" y="1000" width="80" height="80" as="geometry" />
        </mxCell>
        <mxCell id="E1v5joByqu3OAqutx55n-15" value="EV" style="text;html=1;align=center;verticalAlign=middle;whiteSpace=wrap;rounded=0;" parent="ijZoT9axjzXiMg-8ebRo-1" vertex="1">
          <mxGeometry x="1039.6799999999998" y="1000" width="20" height="20" as="geometry" />
        </mxCell>
        <mxCell id="E1v5joByqu3OAqutx55n-16" value="adicionar sobremesa ao pedido" style="rounded=0;whiteSpace=wrap;html=1;fillColor=#e1d5e7;strokeColor=#9673a6;" parent="ijZoT9axjzXiMg-8ebRo-1" vertex="1">
          <mxGeometry x="1159.68" y="1160" width="80" height="80" as="geometry" />
        </mxCell>
        <mxCell id="E1v5joByqu3OAqutx55n-17" value="POL" style="text;html=1;align=center;verticalAlign=middle;whiteSpace=wrap;rounded=0;" parent="ijZoT9axjzXiMg-8ebRo-1" vertex="1">
          <mxGeometry x="1159.68" y="1160" width="30" height="20" as="geometry" />
        </mxCell>
        <mxCell id="E1v5joByqu3OAqutx55n-18" value="adiciona sobremesa ao pedido" style="rounded=0;whiteSpace=wrap;html=1;fillColor=#dae8fc;strokeColor=#6c8ebf;" parent="ijZoT9axjzXiMg-8ebRo-1" vertex="1">
          <mxGeometry x="799.68" y="1320" width="80" height="80" as="geometry" />
        </mxCell>
        <mxCell id="E1v5joByqu3OAqutx55n-19" value="CMD" style="text;html=1;align=center;verticalAlign=middle;whiteSpace=wrap;rounded=0;" parent="ijZoT9axjzXiMg-8ebRo-1" vertex="1">
          <mxGeometry x="799.68" y="1320" width="30" height="20" as="geometry" />
        </mxCell>
        <mxCell id="E1v5joByqu3OAqutx55n-20" value="sobremesa adicionada ao pedido" style="rounded=0;whiteSpace=wrap;html=1;fillColor=#ffe6cc;strokeColor=#d79b00;" parent="ijZoT9axjzXiMg-8ebRo-1" vertex="1">
          <mxGeometry x="1039.6799999999998" y="1320" width="80" height="80" as="geometry" />
        </mxCell>
        <mxCell id="E1v5joByqu3OAqutx55n-21" value="EV" style="text;html=1;align=center;verticalAlign=middle;whiteSpace=wrap;rounded=0;" parent="ijZoT9axjzXiMg-8ebRo-1" vertex="1">
          <mxGeometry x="1039.6799999999998" y="1320" width="20" height="20" as="geometry" />
        </mxCell>
        <mxCell id="E1v5joByqu3OAqutx55n-57" style="edgeStyle=orthogonalEdgeStyle;rounded=0;orthogonalLoop=1;jettySize=auto;html=1;entryX=0;entryY=0.5;entryDx=0;entryDy=0;" parent="ijZoT9axjzXiMg-8ebRo-1" target="E1v5joByqu3OAqutx55n-50" edge="1">
          <mxGeometry relative="1" as="geometry">
            <Array as="points">
              <mxPoint x="1259" y="1520" />
              <mxPoint x="1259" y="240" />
            </Array>
            <mxPoint x="1159.6800000000003" y="1520" as="sourcePoint" />
            <mxPoint x="1360" y="240" as="targetPoint" />
          </mxGeometry>
        </mxCell>
        <mxCell id="E1v5joByqu3OAqutx55n-47" value="solicitar pagamento" style="rounded=0;whiteSpace=wrap;html=1;fillColor=#e1d5e7;strokeColor=#9673a6;" parent="ijZoT9axjzXiMg-8ebRo-1" vertex="1">
          <mxGeometry x="1159.68" y="1480" width="80" height="80" as="geometry" />
        </mxCell>
        <mxCell id="E1v5joByqu3OAqutx55n-48" value="POL" style="text;html=1;align=center;verticalAlign=middle;whiteSpace=wrap;rounded=0;" parent="ijZoT9axjzXiMg-8ebRo-1" vertex="1">
          <mxGeometry x="1159.68" y="1480" width="30" height="20" as="geometry" />
        </mxCell>
        <mxCell id="E1v5joByqu3OAqutx55n-49" style="edgeStyle=orthogonalEdgeStyle;rounded=0;orthogonalLoop=1;jettySize=auto;html=1;entryX=-0.045;entryY=0.506;entryDx=0;entryDy=0;entryPerimeter=0;" parent="ijZoT9axjzXiMg-8ebRo-1" source="LGjrs3-IYvRmnqfgp4Y6-60" target="E1v5joByqu3OAqutx55n-47" edge="1">
          <mxGeometry relative="1" as="geometry" />
        </mxCell>
        <mxCell id="E1v5joByqu3OAqutx55n-58" style="edgeStyle=orthogonalEdgeStyle;rounded=0;orthogonalLoop=1;jettySize=auto;html=1;entryX=0;entryY=0.5;entryDx=0;entryDy=0;" parent="ijZoT9axjzXiMg-8ebRo-1" source="E1v5joByqu3OAqutx55n-50" target="E1v5joByqu3OAqutx55n-55" edge="1">
          <mxGeometry relative="1" as="geometry" />
        </mxCell>
        <mxCell id="E1v5joByqu3OAqutx55n-50" value="solicita pagamento" style="rounded=0;whiteSpace=wrap;html=1;fillColor=#dae8fc;strokeColor=#6c8ebf;" parent="ijZoT9axjzXiMg-8ebRo-1" vertex="1">
          <mxGeometry x="1440" y="200" width="80" height="80" as="geometry" />
        </mxCell>
        <mxCell id="E1v5joByqu3OAqutx55n-51" value="CMD" style="text;html=1;align=center;verticalAlign=middle;whiteSpace=wrap;rounded=0;" parent="ijZoT9axjzXiMg-8ebRo-1" vertex="1">
          <mxGeometry x="1440" y="200" width="30" height="20" as="geometry" />
        </mxCell>
        <mxCell id="E1v5joByqu3OAqutx55n-52" value="" style="rounded=0;whiteSpace=wrap;html=1;fillColor=#fff2cc;strokeColor=#d6b656;" parent="ijZoT9axjzXiMg-8ebRo-1" vertex="1">
          <mxGeometry x="1560" y="200" width="80" height="280" as="geometry" />
        </mxCell>
        <mxCell id="E1v5joByqu3OAqutx55n-53" value="AG" style="text;html=1;align=center;verticalAlign=middle;whiteSpace=wrap;rounded=0;" parent="ijZoT9axjzXiMg-8ebRo-1" vertex="1">
          <mxGeometry x="1560" y="200" width="20" height="20" as="geometry" />
        </mxCell>
        <mxCell id="E1v5joByqu3OAqutx55n-54" value="&lt;font style=&quot;font-size: 20px;&quot;&gt;Pagamento&lt;/font&gt;" style="text;html=1;align=center;verticalAlign=middle;whiteSpace=wrap;rounded=0;rotation=-90;" parent="ijZoT9axjzXiMg-8ebRo-1" vertex="1">
          <mxGeometry x="1460" y="300" width="281.25" height="80" as="geometry" />
        </mxCell>
        <mxCell id="E1v5joByqu3OAqutx55n-55" value="pagamento solicitado" style="rounded=0;whiteSpace=wrap;html=1;fillColor=#ffe6cc;strokeColor=#d79b00;" parent="ijZoT9axjzXiMg-8ebRo-1" vertex="1">
          <mxGeometry x="1680" y="200" width="80" height="80" as="geometry" />
        </mxCell>
        <mxCell id="E1v5joByqu3OAqutx55n-56" value="EV" style="text;html=1;align=center;verticalAlign=middle;whiteSpace=wrap;rounded=0;" parent="ijZoT9axjzXiMg-8ebRo-1" vertex="1">
          <mxGeometry x="1680" y="200" width="20" height="20" as="geometry" />
        </mxCell>
        <mxCell id="fH7RhqI2tM3EiL5CoFbS-0" value="&amp;nbsp;AT" style="text;html=1;align=center;verticalAlign=middle;whiteSpace=wrap;rounded=0;fontSize=5;" parent="ijZoT9axjzXiMg-8ebRo-1" vertex="1">
          <mxGeometry x="140.31" y="250" width="20" height="10" as="geometry" />
        </mxCell>
        <mxCell id="fH7RhqI2tM3EiL5CoFbS-1" value="&amp;nbsp;AT" style="text;html=1;align=center;verticalAlign=middle;whiteSpace=wrap;rounded=0;fontSize=5;" parent="ijZoT9axjzXiMg-8ebRo-1" vertex="1">
          <mxGeometry x="140.31" y="570" width="20" height="10" as="geometry" />
        </mxCell>
        <mxCell id="fH7RhqI2tM3EiL5CoFbS-2" value="&amp;nbsp;AT" style="text;html=1;align=center;verticalAlign=middle;whiteSpace=wrap;rounded=0;fontSize=5;" parent="ijZoT9axjzXiMg-8ebRo-1" vertex="1">
          <mxGeometry x="140.31" y="690" width="20" height="10" as="geometry" />
        </mxCell>
        <mxCell id="fH7RhqI2tM3EiL5CoFbS-3" value="&amp;nbsp;AT" style="text;html=1;align=center;verticalAlign=middle;whiteSpace=wrap;rounded=0;fontSize=5;" parent="ijZoT9axjzXiMg-8ebRo-1" vertex="1">
          <mxGeometry x="140.31" y="810" width="20" height="10" as="geometry" />
        </mxCell>
        <mxCell id="fH7RhqI2tM3EiL5CoFbS-4" value="&amp;nbsp;AT" style="text;html=1;align=center;verticalAlign=middle;whiteSpace=wrap;rounded=0;fontSize=5;" parent="ijZoT9axjzXiMg-8ebRo-1" vertex="1">
          <mxGeometry x="779.68" y="250" width="20" height="10" as="geometry" />
        </mxCell>
        <mxCell id="fH7RhqI2tM3EiL5CoFbS-5" value="&amp;nbsp;AT" style="text;html=1;align=center;verticalAlign=middle;whiteSpace=wrap;rounded=0;fontSize=5;" parent="ijZoT9axjzXiMg-8ebRo-1" vertex="1">
          <mxGeometry x="779.68" y="570" width="20" height="10" as="geometry" />
        </mxCell>
        <mxCell id="fH7RhqI2tM3EiL5CoFbS-6" value="&amp;nbsp;AT" style="text;html=1;align=center;verticalAlign=middle;whiteSpace=wrap;rounded=0;fontSize=5;" parent="ijZoT9axjzXiMg-8ebRo-1" vertex="1">
          <mxGeometry x="779.68" y="890" width="20" height="10" as="geometry" />
        </mxCell>
        <mxCell id="fH7RhqI2tM3EiL5CoFbS-7" value="&amp;nbsp;AT" style="text;html=1;align=center;verticalAlign=middle;whiteSpace=wrap;rounded=0;fontSize=5;" parent="ijZoT9axjzXiMg-8ebRo-1" vertex="1">
          <mxGeometry x="779.68" y="1210" width="20" height="10" as="geometry" />
        </mxCell>
        <mxCell id="fH7RhqI2tM3EiL5CoFbS-8" value="&amp;nbsp;AT" style="text;html=1;align=center;verticalAlign=middle;whiteSpace=wrap;rounded=0;fontSize=5;" parent="ijZoT9axjzXiMg-8ebRo-1" vertex="1">
          <mxGeometry x="779.68" y="1530" width="20" height="10" as="geometry" />
        </mxCell>
        <mxCell id="ymRJG0LgkMiNLhc4Boqx-0" value="&amp;nbsp;AT" style="text;html=1;align=center;verticalAlign=middle;whiteSpace=wrap;rounded=0;fontSize=5;" parent="ijZoT9axjzXiMg-8ebRo-1" vertex="1">
          <mxGeometry x="1420" y="410" width="20" height="10" as="geometry" />
        </mxCell>
        <mxCell id="ZbRTq6buB_a8Vku2JLAF-0" value="" style="rounded=0;whiteSpace=wrap;html=1;fillColor=#fff2cc;strokeColor=#d6b656;" vertex="1" parent="ijZoT9axjzXiMg-8ebRo-1">
          <mxGeometry x="279.69" y="200" width="80" height="640" as="geometry" />
        </mxCell>
        <mxCell id="ZbRTq6buB_a8Vku2JLAF-1" value="AG" style="text;html=1;align=center;verticalAlign=middle;whiteSpace=wrap;rounded=0;" vertex="1" parent="ijZoT9axjzXiMg-8ebRo-1">
          <mxGeometry x="279.69" y="200" width="20" height="20" as="geometry" />
        </mxCell>
        <mxCell id="ZbRTq6buB_a8Vku2JLAF-2" value="&lt;font style=&quot;font-size: 20px;&quot;&gt;Cliente&lt;/font&gt;" style="text;html=1;align=center;verticalAlign=middle;whiteSpace=wrap;rounded=0;rotation=-90;" vertex="1" parent="ijZoT9axjzXiMg-8ebRo-1">
          <mxGeometry y="479.07000000000005" width="639.38" height="80" as="geometry" />
        </mxCell>
      </root>
    </mxGraphModel>
  </diagram>
  <diagram id="hZdezczZ2TlD1lglIOnD" name="Contexto - PreparaÃ§Ã£o e entrega">
    <mxGraphModel dx="1366" dy="796" grid="1" gridSize="10" guides="1" tooltips="1" connect="1" arrows="1" fold="1" page="1" pageScale="1" pageWidth="1400" pageHeight="1400" math="0" shadow="0">
      <root>
        <mxCell id="0" />
        <mxCell id="1" parent="0" />
        <mxCell id="FeaZ7PYPsn9ZRKP_TJsK-66" style="edgeStyle=orthogonalEdgeStyle;rounded=0;orthogonalLoop=1;jettySize=auto;html=1;exitX=0.5;exitY=1;exitDx=0;exitDy=0;entryX=0;entryY=0.5;entryDx=0;entryDy=0;" parent="1" source="FeaZ7PYPsn9ZRKP_TJsK-54" target="FeaZ7PYPsn9ZRKP_TJsK-61" edge="1">
          <mxGeometry relative="1" as="geometry" />
        </mxCell>
        <mxCell id="FeaZ7PYPsn9ZRKP_TJsK-60" style="edgeStyle=orthogonalEdgeStyle;rounded=0;orthogonalLoop=1;jettySize=auto;html=1;exitX=1;exitY=0.5;exitDx=0;exitDy=0;" parent="1" source="FeaZ7PYPsn9ZRKP_TJsK-61" target="FeaZ7PYPsn9ZRKP_TJsK-63" edge="1">
          <mxGeometry relative="1" as="geometry" />
        </mxCell>
        <mxCell id="FeaZ7PYPsn9ZRKP_TJsK-59" style="edgeStyle=orthogonalEdgeStyle;rounded=0;orthogonalLoop=1;jettySize=auto;html=1;exitX=0.5;exitY=1;exitDx=0;exitDy=0;" parent="1" source="FeaZ7PYPsn9ZRKP_TJsK-44" target="FeaZ7PYPsn9ZRKP_TJsK-57" edge="1">
          <mxGeometry relative="1" as="geometry" />
        </mxCell>
        <mxCell id="FeaZ7PYPsn9ZRKP_TJsK-47" style="edgeStyle=orthogonalEdgeStyle;rounded=0;orthogonalLoop=1;jettySize=auto;html=1;exitX=1;exitY=0.5;exitDx=0;exitDy=0;entryX=0;entryY=0.5;entryDx=0;entryDy=0;" parent="1" source="FeaZ7PYPsn9ZRKP_TJsK-48" target="FeaZ7PYPsn9ZRKP_TJsK-52" edge="1">
          <mxGeometry relative="1" as="geometry" />
        </mxCell>
        <mxCell id="FeaZ7PYPsn9ZRKP_TJsK-46" style="edgeStyle=orthogonalEdgeStyle;rounded=0;orthogonalLoop=1;jettySize=auto;html=1;exitX=1;exitY=0.5;exitDx=0;exitDy=0;entryX=0;entryY=0.5;entryDx=0;entryDy=0;" parent="1" source="FeaZ7PYPsn9ZRKP_TJsK-29" target="FeaZ7PYPsn9ZRKP_TJsK-44" edge="1">
          <mxGeometry relative="1" as="geometry" />
        </mxCell>
        <mxCell id="FeaZ7PYPsn9ZRKP_TJsK-23" style="edgeStyle=orthogonalEdgeStyle;rounded=0;orthogonalLoop=1;jettySize=auto;html=1;exitX=1;exitY=0.5;exitDx=0;exitDy=0;" parent="1" source="FeaZ7PYPsn9ZRKP_TJsK-24" target="FeaZ7PYPsn9ZRKP_TJsK-26" edge="1">
          <mxGeometry relative="1" as="geometry" />
        </mxCell>
        <mxCell id="FeaZ7PYPsn9ZRKP_TJsK-39" style="edgeStyle=orthogonalEdgeStyle;rounded=0;orthogonalLoop=1;jettySize=auto;html=1;exitX=0.5;exitY=1;exitDx=0;exitDy=0;" parent="1" source="FeaZ7PYPsn9ZRKP_TJsK-2" target="FeaZ7PYPsn9ZRKP_TJsK-36" edge="1">
          <mxGeometry relative="1" as="geometry" />
        </mxCell>
        <mxCell id="FeaZ7PYPsn9ZRKP_TJsK-43" style="edgeStyle=orthogonalEdgeStyle;rounded=0;orthogonalLoop=1;jettySize=auto;html=1;exitX=0.5;exitY=1;exitDx=0;exitDy=0;" parent="1" source="FeaZ7PYPsn9ZRKP_TJsK-26" target="FeaZ7PYPsn9ZRKP_TJsK-32" edge="1">
          <mxGeometry relative="1" as="geometry" />
        </mxCell>
        <mxCell id="FeaZ7PYPsn9ZRKP_TJsK-38" style="edgeStyle=orthogonalEdgeStyle;rounded=0;orthogonalLoop=1;jettySize=auto;html=1;exitX=0.5;exitY=1;exitDx=0;exitDy=0;" parent="1" source="gvduqnQYtqvn_arB6Xe8-3" target="FeaZ7PYPsn9ZRKP_TJsK-34" edge="1">
          <mxGeometry relative="1" as="geometry" />
        </mxCell>
        <mxCell id="FeaZ7PYPsn9ZRKP_TJsK-13" style="edgeStyle=orthogonalEdgeStyle;rounded=0;orthogonalLoop=1;jettySize=auto;html=1;exitX=1;exitY=0.5;exitDx=0;exitDy=0;entryX=0;entryY=0.5;entryDx=0;entryDy=0;" parent="1" source="FeaZ7PYPsn9ZRKP_TJsK-14" target="FeaZ7PYPsn9ZRKP_TJsK-17" edge="1">
          <mxGeometry relative="1" as="geometry" />
        </mxCell>
        <mxCell id="FeaZ7PYPsn9ZRKP_TJsK-4" style="edgeStyle=orthogonalEdgeStyle;rounded=0;orthogonalLoop=1;jettySize=auto;html=1;exitX=1;exitY=0.5;exitDx=0;exitDy=0;entryX=0;entryY=0.5;entryDx=0;entryDy=0;" parent="1" source="3Yo6N8_KKzinP10P9IQL-1" target="FeaZ7PYPsn9ZRKP_TJsK-2" edge="1">
          <mxGeometry relative="1" as="geometry" />
        </mxCell>
        <mxCell id="FeaZ7PYPsn9ZRKP_TJsK-12" style="edgeStyle=orthogonalEdgeStyle;rounded=0;orthogonalLoop=1;jettySize=auto;html=1;exitX=0.5;exitY=1;exitDx=0;exitDy=0;entryX=0;entryY=0.5;entryDx=0;entryDy=0;" parent="1" source="FeaZ7PYPsn9ZRKP_TJsK-9" target="3Yo6N8_KKzinP10P9IQL-1" edge="1">
          <mxGeometry relative="1" as="geometry" />
        </mxCell>
        <mxCell id="FeaZ7PYPsn9ZRKP_TJsK-5" style="edgeStyle=orthogonalEdgeStyle;rounded=0;orthogonalLoop=1;jettySize=auto;html=1;exitX=1;exitY=0.5;exitDx=0;exitDy=0;entryX=0;entryY=0.5;entryDx=0;entryDy=0;" parent="1" source="FeaZ7PYPsn9ZRKP_TJsK-6" target="FeaZ7PYPsn9ZRKP_TJsK-9" edge="1">
          <mxGeometry relative="1" as="geometry" />
        </mxCell>
        <mxCell id="gvduqnQYtqvn_arB6Xe8-5" style="edgeStyle=orthogonalEdgeStyle;rounded=0;orthogonalLoop=1;jettySize=auto;html=1;exitX=1;exitY=0.5;exitDx=0;exitDy=0;entryX=0;entryY=0.5;entryDx=0;entryDy=0;" parent="1" source="wMJhF0CP5Bdc9bgKaH37-5" target="gvduqnQYtqvn_arB6Xe8-3" edge="1">
          <mxGeometry relative="1" as="geometry" />
        </mxCell>
        <mxCell id="wMJhF0CP5Bdc9bgKaH37-5" value="notifica pedido ao cozinheiro" style="rounded=0;whiteSpace=wrap;html=1;fillColor=#dae8fc;strokeColor=#6c8ebf;" parent="1" vertex="1">
          <mxGeometry x="159.81" y="680" width="80" height="80" as="geometry" />
        </mxCell>
        <mxCell id="wMJhF0CP5Bdc9bgKaH37-6" value="CMD" style="text;html=1;align=center;verticalAlign=middle;whiteSpace=wrap;rounded=0;" parent="1" vertex="1">
          <mxGeometry x="159.81" y="680" width="30" height="20" as="geometry" />
        </mxCell>
        <mxCell id="wMJhF0CP5Bdc9bgKaH37-7" value="Auxiliar" style="rounded=0;whiteSpace=wrap;html=1;fillColor=#fff2cc;strokeColor=#d6b656;rotation=-90;" parent="1" vertex="1">
          <mxGeometry x="129.81" y="750" width="54" height="20" as="geometry" />
        </mxCell>
        <mxCell id="gvduqnQYtqvn_arB6Xe8-2" style="edgeStyle=orthogonalEdgeStyle;rounded=0;orthogonalLoop=1;jettySize=auto;html=1;entryX=0;entryY=0.5;entryDx=0;entryDy=0;" parent="1" source="wMJhF0CP5Bdc9bgKaH37-16" target="wMJhF0CP5Bdc9bgKaH37-5" edge="1">
          <mxGeometry relative="1" as="geometry" />
        </mxCell>
        <mxCell id="wMJhF0CP5Bdc9bgKaH37-16" value="Lista com pedidos no painel administrativo" style="rounded=0;whiteSpace=wrap;html=1;fillColor=#d5e8d4;strokeColor=#82b366;" parent="1" vertex="1">
          <mxGeometry x="39.81" y="680" width="80" height="80" as="geometry" />
        </mxCell>
        <mxCell id="wMJhF0CP5Bdc9bgKaH37-17" value="ML" style="text;html=1;align=center;verticalAlign=middle;whiteSpace=wrap;rounded=0;" parent="1" vertex="1">
          <mxGeometry x="39.81" y="680" width="20" height="20" as="geometry" />
        </mxCell>
        <mxCell id="SknHr-Pc8eCKHr26y2ez-5" style="edgeStyle=orthogonalEdgeStyle;rounded=0;orthogonalLoop=1;jettySize=auto;html=1;exitX=1;exitY=0.5;exitDx=0;exitDy=0;entryX=0;entryY=0.5;entryDx=0;entryDy=0;" parent="1" source="dshsobXoRtVNk5ipEgEd-1" target="TOi_j4QEENh-ZlBKSkTW-1" edge="1">
          <mxGeometry relative="1" as="geometry" />
        </mxCell>
        <mxCell id="dshsobXoRtVNk5ipEgEd-1" value="pedido enviado para cozinha" style="rounded=0;whiteSpace=wrap;html=1;fillColor=#ffe6cc;strokeColor=#d79b00;" parent="1" vertex="1">
          <mxGeometry x="399.81" y="200" width="80" height="80" as="geometry" />
        </mxCell>
        <mxCell id="dshsobXoRtVNk5ipEgEd-2" value="EV" style="text;html=1;align=center;verticalAlign=middle;whiteSpace=wrap;rounded=0;" parent="1" vertex="1">
          <mxGeometry x="399.81" y="200" width="20" height="20" as="geometry" />
        </mxCell>
        <mxCell id="SknHr-Pc8eCKHr26y2ez-4" style="edgeStyle=orthogonalEdgeStyle;rounded=0;orthogonalLoop=1;jettySize=auto;html=1;" parent="1" source="dshsobXoRtVNk5ipEgEd-4" target="dshsobXoRtVNk5ipEgEd-1" edge="1">
          <mxGeometry relative="1" as="geometry" />
        </mxCell>
        <mxCell id="dshsobXoRtVNk5ipEgEd-4" value="envia pedido para cozinha" style="rounded=0;whiteSpace=wrap;html=1;fillColor=#dae8fc;strokeColor=#6c8ebf;" parent="1" vertex="1">
          <mxGeometry x="159.81" y="200" width="80" height="80" as="geometry" />
        </mxCell>
        <mxCell id="dshsobXoRtVNk5ipEgEd-5" value="CMD" style="text;html=1;align=center;verticalAlign=middle;whiteSpace=wrap;rounded=0;" parent="1" vertex="1">
          <mxGeometry x="159.81" y="200" width="30" height="20" as="geometry" />
        </mxCell>
        <mxCell id="z6LIVCkFwG3z4Gx5o4D_-1" style="edgeStyle=orthogonalEdgeStyle;rounded=0;orthogonalLoop=1;jettySize=auto;html=1;exitX=0.5;exitY=1;exitDx=0;exitDy=0;entryX=0;entryY=0.5;entryDx=0;entryDy=0;" parent="1" source="TOi_j4QEENh-ZlBKSkTW-1" target="XFspVy6ZrYuyNzP63wPe-1" edge="1">
          <mxGeometry relative="1" as="geometry" />
        </mxCell>
        <mxCell id="TOi_j4QEENh-ZlBKSkTW-1" value="atualizar o progresso do pedido para recebido" style="rounded=0;whiteSpace=wrap;html=1;fillColor=#e1d5e7;strokeColor=#9673a6;" parent="1" vertex="1">
          <mxGeometry x="519.81" y="200" width="80" height="80" as="geometry" />
        </mxCell>
        <mxCell id="TOi_j4QEENh-ZlBKSkTW-2" value="POL" style="text;html=1;align=center;verticalAlign=middle;whiteSpace=wrap;rounded=0;" parent="1" vertex="1">
          <mxGeometry x="519.81" y="200" width="30" height="20" as="geometry" />
        </mxCell>
        <mxCell id="z6LIVCkFwG3z4Gx5o4D_-2" style="edgeStyle=orthogonalEdgeStyle;rounded=0;orthogonalLoop=1;jettySize=auto;html=1;exitX=1;exitY=0.5;exitDx=0;exitDy=0;" parent="1" source="XFspVy6ZrYuyNzP63wPe-1" target="XFspVy6ZrYuyNzP63wPe-5" edge="1">
          <mxGeometry relative="1" as="geometry" />
        </mxCell>
        <mxCell id="XFspVy6ZrYuyNzP63wPe-1" value="atualiza o progresso para recebido" style="rounded=0;whiteSpace=wrap;html=1;fillColor=#dae8fc;strokeColor=#6c8ebf;" parent="1" vertex="1">
          <mxGeometry x="159.81" y="360" width="80" height="80" as="geometry" />
        </mxCell>
        <mxCell id="XFspVy6ZrYuyNzP63wPe-2" value="CMD" style="text;html=1;align=center;verticalAlign=middle;whiteSpace=wrap;rounded=0;" parent="1" vertex="1">
          <mxGeometry x="159.81" y="360" width="30" height="20" as="geometry" />
        </mxCell>
        <mxCell id="z6LIVCkFwG3z4Gx5o4D_-3" style="edgeStyle=orthogonalEdgeStyle;rounded=0;orthogonalLoop=1;jettySize=auto;html=1;exitX=1;exitY=0.5;exitDx=0;exitDy=0;entryX=0;entryY=0.5;entryDx=0;entryDy=0;" parent="1" source="XFspVy6ZrYuyNzP63wPe-5" target="XFspVy6ZrYuyNzP63wPe-8" edge="1">
          <mxGeometry relative="1" as="geometry" />
        </mxCell>
        <mxCell id="XFspVy6ZrYuyNzP63wPe-5" value="progresso atualizado para recebido" style="rounded=0;whiteSpace=wrap;html=1;fillColor=#ffe6cc;strokeColor=#d79b00;" parent="1" vertex="1">
          <mxGeometry x="399.81" y="360" width="80" height="80" as="geometry" />
        </mxCell>
        <mxCell id="XFspVy6ZrYuyNzP63wPe-6" value="EV" style="text;html=1;align=center;verticalAlign=middle;whiteSpace=wrap;rounded=0;" parent="1" vertex="1">
          <mxGeometry x="399.81" y="360" width="20" height="20" as="geometry" />
        </mxCell>
        <mxCell id="z6LIVCkFwG3z4Gx5o4D_-4" style="edgeStyle=orthogonalEdgeStyle;rounded=0;orthogonalLoop=1;jettySize=auto;html=1;exitX=0.5;exitY=1;exitDx=0;exitDy=0;entryX=0;entryY=0.5;entryDx=0;entryDy=0;" parent="1" source="XFspVy6ZrYuyNzP63wPe-8" target="XFspVy6ZrYuyNzP63wPe-10" edge="1">
          <mxGeometry relative="1" as="geometry" />
        </mxCell>
        <mxCell id="XFspVy6ZrYuyNzP63wPe-8" value="iniciar cronÃ´metro de tempo de espera" style="rounded=0;whiteSpace=wrap;html=1;fillColor=#e1d5e7;strokeColor=#9673a6;" parent="1" vertex="1">
          <mxGeometry x="519.81" y="360" width="80" height="80" as="geometry" />
        </mxCell>
        <mxCell id="XFspVy6ZrYuyNzP63wPe-9" value="POL" style="text;html=1;align=center;verticalAlign=middle;whiteSpace=wrap;rounded=0;" parent="1" vertex="1">
          <mxGeometry x="519.81" y="360" width="30" height="20" as="geometry" />
        </mxCell>
        <mxCell id="z6LIVCkFwG3z4Gx5o4D_-5" style="edgeStyle=orthogonalEdgeStyle;rounded=0;orthogonalLoop=1;jettySize=auto;html=1;exitX=1;exitY=0.5;exitDx=0;exitDy=0;" parent="1" source="XFspVy6ZrYuyNzP63wPe-10" target="XFspVy6ZrYuyNzP63wPe-12" edge="1">
          <mxGeometry relative="1" as="geometry" />
        </mxCell>
        <mxCell id="XFspVy6ZrYuyNzP63wPe-10" value="inicia crÃ´nometro&amp;nbsp;" style="rounded=0;whiteSpace=wrap;html=1;fillColor=#dae8fc;strokeColor=#6c8ebf;" parent="1" vertex="1">
          <mxGeometry x="159.81" y="520" width="80" height="80" as="geometry" />
        </mxCell>
        <mxCell id="XFspVy6ZrYuyNzP63wPe-11" value="CMD" style="text;html=1;align=center;verticalAlign=middle;whiteSpace=wrap;rounded=0;" parent="1" vertex="1">
          <mxGeometry x="159.81" y="520" width="30" height="20" as="geometry" />
        </mxCell>
        <mxCell id="gvduqnQYtqvn_arB6Xe8-1" style="edgeStyle=orthogonalEdgeStyle;rounded=0;orthogonalLoop=1;jettySize=auto;html=1;exitX=0.5;exitY=1;exitDx=0;exitDy=0;" parent="1" source="XFspVy6ZrYuyNzP63wPe-12" target="wMJhF0CP5Bdc9bgKaH37-16" edge="1">
          <mxGeometry relative="1" as="geometry" />
        </mxCell>
        <mxCell id="XFspVy6ZrYuyNzP63wPe-12" value="cronÃ´metro iniciado" style="rounded=0;whiteSpace=wrap;html=1;fillColor=#ffe6cc;strokeColor=#d79b00;" parent="1" vertex="1">
          <mxGeometry x="399.81" y="520" width="80" height="80" as="geometry" />
        </mxCell>
        <mxCell id="XFspVy6ZrYuyNzP63wPe-13" value="EV" style="text;html=1;align=center;verticalAlign=middle;whiteSpace=wrap;rounded=0;" parent="1" vertex="1">
          <mxGeometry x="399.81" y="520" width="20" height="20" as="geometry" />
        </mxCell>
        <mxCell id="SknHr-Pc8eCKHr26y2ez-1" value="" style="rounded=0;whiteSpace=wrap;html=1;fillColor=#fff2cc;strokeColor=#d6b656;" parent="1" vertex="1">
          <mxGeometry x="279.81" y="200" width="80" height="1040" as="geometry" />
        </mxCell>
        <mxCell id="SknHr-Pc8eCKHr26y2ez-2" value="AG" style="text;html=1;align=center;verticalAlign=middle;whiteSpace=wrap;rounded=0;" parent="1" vertex="1">
          <mxGeometry x="279.81" y="200" width="20" height="20" as="geometry" />
        </mxCell>
        <mxCell id="SknHr-Pc8eCKHr26y2ez-3" value="&lt;font style=&quot;font-size: 20px;&quot;&gt;Pedido&lt;/font&gt;" style="text;html=1;align=center;verticalAlign=middle;whiteSpace=wrap;rounded=0;rotation=-90;" parent="1" vertex="1">
          <mxGeometry x="-200" y="679.79" width="1040.86" height="80" as="geometry" />
        </mxCell>
        <mxCell id="gvduqnQYtqvn_arB6Xe8-3" value="cozinheiro notificado" style="rounded=0;whiteSpace=wrap;html=1;fillColor=#ffe6cc;strokeColor=#d79b00;" parent="1" vertex="1">
          <mxGeometry x="399.81" y="680" width="80" height="80" as="geometry" />
        </mxCell>
        <mxCell id="gvduqnQYtqvn_arB6Xe8-4" value="EV" style="text;html=1;align=center;verticalAlign=middle;whiteSpace=wrap;rounded=0;" parent="1" vertex="1">
          <mxGeometry x="399.81" y="680" width="20" height="20" as="geometry" />
        </mxCell>
        <mxCell id="3Yo6N8_KKzinP10P9IQL-1" value="prepara o pedido" style="rounded=0;whiteSpace=wrap;html=1;fillColor=#dae8fc;strokeColor=#6c8ebf;" parent="1" vertex="1">
          <mxGeometry x="159.81" y="1000" width="80" height="80" as="geometry" />
        </mxCell>
        <mxCell id="3Yo6N8_KKzinP10P9IQL-2" value="CMD" style="text;html=1;align=center;verticalAlign=middle;whiteSpace=wrap;rounded=0;" parent="1" vertex="1">
          <mxGeometry x="159.81" y="1000" width="30" height="20" as="geometry" />
        </mxCell>
        <mxCell id="3Yo6N8_KKzinP10P9IQL-3" value="Cozinheiro" style="rounded=0;whiteSpace=wrap;html=1;fillColor=#fff2cc;strokeColor=#d6b656;rotation=-90;" parent="1" vertex="1">
          <mxGeometry x="124.81" y="1075" width="64" height="20" as="geometry" />
        </mxCell>
        <mxCell id="FeaZ7PYPsn9ZRKP_TJsK-2" value="pedido preparado" style="rounded=0;whiteSpace=wrap;html=1;fillColor=#ffe6cc;strokeColor=#d79b00;" parent="1" vertex="1">
          <mxGeometry x="399.81" y="1000" width="80" height="80" as="geometry" />
        </mxCell>
        <mxCell id="FeaZ7PYPsn9ZRKP_TJsK-3" value="EV" style="text;html=1;align=center;verticalAlign=middle;whiteSpace=wrap;rounded=0;" parent="1" vertex="1">
          <mxGeometry x="399.81" y="1000" width="20" height="20" as="geometry" />
        </mxCell>
        <mxCell id="FeaZ7PYPsn9ZRKP_TJsK-6" value="atualiza o progresso para em preparaÃ§Ã£o&amp;nbsp;" style="rounded=0;whiteSpace=wrap;html=1;fillColor=#dae8fc;strokeColor=#6c8ebf;" parent="1" vertex="1">
          <mxGeometry x="159.81" y="840" width="80" height="80" as="geometry" />
        </mxCell>
        <mxCell id="FeaZ7PYPsn9ZRKP_TJsK-7" value="CMD" style="text;html=1;align=center;verticalAlign=middle;whiteSpace=wrap;rounded=0;" parent="1" vertex="1">
          <mxGeometry x="159.81" y="840" width="30" height="20" as="geometry" />
        </mxCell>
        <mxCell id="FeaZ7PYPsn9ZRKP_TJsK-8" value="Auxiliar" style="rounded=0;whiteSpace=wrap;html=1;fillColor=#fff2cc;strokeColor=#d6b656;rotation=-90;" parent="1" vertex="1">
          <mxGeometry x="129.81" y="910" width="54" height="20" as="geometry" />
        </mxCell>
        <mxCell id="FeaZ7PYPsn9ZRKP_TJsK-9" value="progresso atualizado para em preparaÃ§Ã£o" style="rounded=0;whiteSpace=wrap;html=1;fillColor=#ffe6cc;strokeColor=#d79b00;" parent="1" vertex="1">
          <mxGeometry x="399.81" y="840" width="80" height="80" as="geometry" />
        </mxCell>
        <mxCell id="FeaZ7PYPsn9ZRKP_TJsK-10" value="EV" style="text;html=1;align=center;verticalAlign=middle;whiteSpace=wrap;rounded=0;" parent="1" vertex="1">
          <mxGeometry x="399.81" y="840" width="20" height="20" as="geometry" />
        </mxCell>
        <mxCell id="FeaZ7PYPsn9ZRKP_TJsK-14" value="atualiza o progresso para pronto" style="rounded=0;whiteSpace=wrap;html=1;fillColor=#dae8fc;strokeColor=#6c8ebf;" parent="1" vertex="1">
          <mxGeometry x="159.81" y="1160" width="80" height="80" as="geometry" />
        </mxCell>
        <mxCell id="FeaZ7PYPsn9ZRKP_TJsK-15" value="CMD" style="text;html=1;align=center;verticalAlign=middle;whiteSpace=wrap;rounded=0;" parent="1" vertex="1">
          <mxGeometry x="159.81" y="1160" width="30" height="20" as="geometry" />
        </mxCell>
        <mxCell id="FeaZ7PYPsn9ZRKP_TJsK-16" value="Auxiliar" style="rounded=0;whiteSpace=wrap;html=1;fillColor=#fff2cc;strokeColor=#d6b656;rotation=-90;" parent="1" vertex="1">
          <mxGeometry x="129.81" y="1230" width="54" height="20" as="geometry" />
        </mxCell>
        <mxCell id="FeaZ7PYPsn9ZRKP_TJsK-22" style="edgeStyle=orthogonalEdgeStyle;rounded=0;orthogonalLoop=1;jettySize=auto;html=1;exitX=1;exitY=0.5;exitDx=0;exitDy=0;entryX=0;entryY=0.5;entryDx=0;entryDy=0;" parent="1" source="FeaZ7PYPsn9ZRKP_TJsK-17" target="FeaZ7PYPsn9ZRKP_TJsK-20" edge="1">
          <mxGeometry relative="1" as="geometry" />
        </mxCell>
        <mxCell id="FeaZ7PYPsn9ZRKP_TJsK-17" value="progresso atualizado para pronto" style="rounded=0;whiteSpace=wrap;html=1;fillColor=#ffe6cc;strokeColor=#d79b00;" parent="1" vertex="1">
          <mxGeometry x="399.81" y="1160" width="80" height="80" as="geometry" />
        </mxCell>
        <mxCell id="FeaZ7PYPsn9ZRKP_TJsK-18" value="EV" style="text;html=1;align=center;verticalAlign=middle;whiteSpace=wrap;rounded=0;" parent="1" vertex="1">
          <mxGeometry x="399.81" y="1160" width="20" height="20" as="geometry" />
        </mxCell>
        <mxCell id="eiTTgfu4Ze73ZfAMXXaw-1" style="edgeStyle=orthogonalEdgeStyle;rounded=0;orthogonalLoop=1;jettySize=auto;html=1;exitX=1;exitY=0.5;exitDx=0;exitDy=0;entryX=0;entryY=0.5;entryDx=0;entryDy=0;" parent="1" edge="1">
          <mxGeometry relative="1" as="geometry">
            <Array as="points">
              <mxPoint x="619.81" y="1199.79" />
              <mxPoint x="619.81" y="239.79000000000002" />
            </Array>
            <mxPoint x="559.8100000000002" y="1199.79" as="sourcePoint" />
            <mxPoint x="800.4399999999998" y="239.79000000000002" as="targetPoint" />
          </mxGeometry>
        </mxCell>
        <mxCell id="FeaZ7PYPsn9ZRKP_TJsK-20" value="notificar o cliente" style="rounded=0;whiteSpace=wrap;html=1;fillColor=#e1d5e7;strokeColor=#9673a6;" parent="1" vertex="1">
          <mxGeometry x="519.81" y="1160" width="80" height="80" as="geometry" />
        </mxCell>
        <mxCell id="FeaZ7PYPsn9ZRKP_TJsK-21" value="POL" style="text;html=1;align=center;verticalAlign=middle;whiteSpace=wrap;rounded=0;" parent="1" vertex="1">
          <mxGeometry x="519.81" y="1160" width="30" height="20" as="geometry" />
        </mxCell>
        <mxCell id="FeaZ7PYPsn9ZRKP_TJsK-24" value="notifica cliente" style="rounded=0;whiteSpace=wrap;html=1;fillColor=#dae8fc;strokeColor=#6c8ebf;" parent="1" vertex="1">
          <mxGeometry x="800.6300000000001" y="199.99999999999997" width="80" height="80" as="geometry" />
        </mxCell>
        <mxCell id="FeaZ7PYPsn9ZRKP_TJsK-25" value="CMD" style="text;html=1;align=center;verticalAlign=middle;whiteSpace=wrap;rounded=0;" parent="1" vertex="1">
          <mxGeometry x="800.6300000000001" y="199.99999999999997" width="30" height="20" as="geometry" />
        </mxCell>
        <mxCell id="FeaZ7PYPsn9ZRKP_TJsK-26" value="cliente notificado" style="rounded=0;whiteSpace=wrap;html=1;fillColor=#ffe6cc;strokeColor=#d79b00;" parent="1" vertex="1">
          <mxGeometry x="1040.63" y="199.99999999999997" width="80" height="80" as="geometry" />
        </mxCell>
        <mxCell id="FeaZ7PYPsn9ZRKP_TJsK-27" value="EV" style="text;html=1;align=center;verticalAlign=middle;whiteSpace=wrap;rounded=0;" parent="1" vertex="1">
          <mxGeometry x="1040.63" y="199.99999999999997" width="20" height="20" as="geometry" />
        </mxCell>
        <mxCell id="FeaZ7PYPsn9ZRKP_TJsK-29" value="retira o pedido" style="rounded=0;whiteSpace=wrap;html=1;fillColor=#dae8fc;strokeColor=#6c8ebf;" parent="1" vertex="1">
          <mxGeometry x="800.6300000000001" y="359.99999999999994" width="80" height="80" as="geometry" />
        </mxCell>
        <mxCell id="FeaZ7PYPsn9ZRKP_TJsK-30" value="CMD" style="text;html=1;align=center;verticalAlign=middle;whiteSpace=wrap;rounded=0;" parent="1" vertex="1">
          <mxGeometry x="800.6300000000001" y="359.99999999999994" width="30" height="20" as="geometry" />
        </mxCell>
        <mxCell id="FeaZ7PYPsn9ZRKP_TJsK-31" value="Cliente" style="rounded=0;whiteSpace=wrap;html=1;fillColor=#fff2cc;strokeColor=#d6b656;rotation=-90;" parent="1" vertex="1">
          <mxGeometry x="770.6300000000001" y="429.99999999999994" width="54" height="20" as="geometry" />
        </mxCell>
        <mxCell id="FeaZ7PYPsn9ZRKP_TJsK-42" style="edgeStyle=orthogonalEdgeStyle;rounded=0;orthogonalLoop=1;jettySize=auto;html=1;exitX=1;exitY=0.5;exitDx=0;exitDy=0;entryX=0;entryY=0.5;entryDx=0;entryDy=0;" parent="1" source="FeaZ7PYPsn9ZRKP_TJsK-32" target="FeaZ7PYPsn9ZRKP_TJsK-29" edge="1">
          <mxGeometry relative="1" as="geometry" />
        </mxCell>
        <mxCell id="FeaZ7PYPsn9ZRKP_TJsK-32" value="Monitor do cliente" style="rounded=0;whiteSpace=wrap;html=1;fillColor=#d5e8d4;strokeColor=#82b366;" parent="1" vertex="1">
          <mxGeometry x="680" y="359.99999999999994" width="80" height="80" as="geometry" />
        </mxCell>
        <mxCell id="FeaZ7PYPsn9ZRKP_TJsK-33" value="ML" style="text;html=1;align=center;verticalAlign=middle;whiteSpace=wrap;rounded=0;" parent="1" vertex="1">
          <mxGeometry x="680" y="359.99999999999994" width="20" height="20" as="geometry" />
        </mxCell>
        <mxCell id="FeaZ7PYPsn9ZRKP_TJsK-40" style="edgeStyle=orthogonalEdgeStyle;rounded=0;orthogonalLoop=1;jettySize=auto;html=1;exitX=1;exitY=0.5;exitDx=0;exitDy=0;entryX=0;entryY=0.5;entryDx=0;entryDy=0;" parent="1" source="FeaZ7PYPsn9ZRKP_TJsK-34" target="FeaZ7PYPsn9ZRKP_TJsK-6" edge="1">
          <mxGeometry relative="1" as="geometry" />
        </mxCell>
        <mxCell id="FeaZ7PYPsn9ZRKP_TJsK-34" value="Lista com pedidos no painel administrativo" style="rounded=0;whiteSpace=wrap;html=1;fillColor=#d5e8d4;strokeColor=#82b366;" parent="1" vertex="1">
          <mxGeometry x="39.81" y="840" width="80" height="80" as="geometry" />
        </mxCell>
        <mxCell id="FeaZ7PYPsn9ZRKP_TJsK-35" value="ML" style="text;html=1;align=center;verticalAlign=middle;whiteSpace=wrap;rounded=0;" parent="1" vertex="1">
          <mxGeometry x="39.81" y="840" width="20" height="20" as="geometry" />
        </mxCell>
        <mxCell id="FeaZ7PYPsn9ZRKP_TJsK-41" style="edgeStyle=orthogonalEdgeStyle;rounded=0;orthogonalLoop=1;jettySize=auto;html=1;exitX=1;exitY=0.5;exitDx=0;exitDy=0;entryX=0;entryY=0.5;entryDx=0;entryDy=0;" parent="1" source="FeaZ7PYPsn9ZRKP_TJsK-36" target="FeaZ7PYPsn9ZRKP_TJsK-14" edge="1">
          <mxGeometry relative="1" as="geometry" />
        </mxCell>
        <mxCell id="FeaZ7PYPsn9ZRKP_TJsK-36" value="Lista com pedidos no painel administrativo" style="rounded=0;whiteSpace=wrap;html=1;fillColor=#d5e8d4;strokeColor=#82b366;" parent="1" vertex="1">
          <mxGeometry x="39.81" y="1160" width="80" height="80" as="geometry" />
        </mxCell>
        <mxCell id="FeaZ7PYPsn9ZRKP_TJsK-37" value="ML" style="text;html=1;align=center;verticalAlign=middle;whiteSpace=wrap;rounded=0;" parent="1" vertex="1">
          <mxGeometry x="39.81" y="1160" width="20" height="20" as="geometry" />
        </mxCell>
        <mxCell id="FeaZ7PYPsn9ZRKP_TJsK-44" value="pedido retirado" style="rounded=0;whiteSpace=wrap;html=1;fillColor=#ffe6cc;strokeColor=#d79b00;" parent="1" vertex="1">
          <mxGeometry x="1040" y="359.99999999999994" width="80" height="80" as="geometry" />
        </mxCell>
        <mxCell id="FeaZ7PYPsn9ZRKP_TJsK-45" value="EV" style="text;html=1;align=center;verticalAlign=middle;whiteSpace=wrap;rounded=0;" parent="1" vertex="1">
          <mxGeometry x="1040" y="359.99999999999994" width="20" height="20" as="geometry" />
        </mxCell>
        <mxCell id="FeaZ7PYPsn9ZRKP_TJsK-48" value="atualiza o progresso para finalizado" style="rounded=0;whiteSpace=wrap;html=1;fillColor=#dae8fc;strokeColor=#6c8ebf;" parent="1" vertex="1">
          <mxGeometry x="800.6300000000001" y="520" width="80" height="80" as="geometry" />
        </mxCell>
        <mxCell id="FeaZ7PYPsn9ZRKP_TJsK-49" value="CMD" style="text;html=1;align=center;verticalAlign=middle;whiteSpace=wrap;rounded=0;" parent="1" vertex="1">
          <mxGeometry x="800.6300000000001" y="520" width="30" height="20" as="geometry" />
        </mxCell>
        <mxCell id="FeaZ7PYPsn9ZRKP_TJsK-50" value="Auxiliar" style="rounded=0;whiteSpace=wrap;html=1;fillColor=#fff2cc;strokeColor=#d6b656;rotation=-90;" parent="1" vertex="1">
          <mxGeometry x="770.6300000000001" y="590" width="54" height="20" as="geometry" />
        </mxCell>
        <mxCell id="FeaZ7PYPsn9ZRKP_TJsK-51" style="edgeStyle=orthogonalEdgeStyle;rounded=0;orthogonalLoop=1;jettySize=auto;html=1;exitX=1;exitY=0.5;exitDx=0;exitDy=0;entryX=0;entryY=0.5;entryDx=0;entryDy=0;" parent="1" source="FeaZ7PYPsn9ZRKP_TJsK-52" target="FeaZ7PYPsn9ZRKP_TJsK-54" edge="1">
          <mxGeometry relative="1" as="geometry" />
        </mxCell>
        <mxCell id="FeaZ7PYPsn9ZRKP_TJsK-52" value="progresso atualizado para finalizado" style="rounded=0;whiteSpace=wrap;html=1;fillColor=#ffe6cc;strokeColor=#d79b00;" parent="1" vertex="1">
          <mxGeometry x="1040.63" y="520" width="80" height="80" as="geometry" />
        </mxCell>
        <mxCell id="FeaZ7PYPsn9ZRKP_TJsK-53" value="EV" style="text;html=1;align=center;verticalAlign=middle;whiteSpace=wrap;rounded=0;" parent="1" vertex="1">
          <mxGeometry x="1040.63" y="520" width="20" height="20" as="geometry" />
        </mxCell>
        <mxCell id="FeaZ7PYPsn9ZRKP_TJsK-54" value="encerrar cronÃ´metro de tempo de espera" style="rounded=0;whiteSpace=wrap;html=1;fillColor=#e1d5e7;strokeColor=#9673a6;" parent="1" vertex="1">
          <mxGeometry x="1160.63" y="520" width="80" height="80" as="geometry" />
        </mxCell>
        <mxCell id="FeaZ7PYPsn9ZRKP_TJsK-55" value="POL" style="text;html=1;align=center;verticalAlign=middle;whiteSpace=wrap;rounded=0;" parent="1" vertex="1">
          <mxGeometry x="1160.63" y="520" width="30" height="20" as="geometry" />
        </mxCell>
        <mxCell id="FeaZ7PYPsn9ZRKP_TJsK-56" style="edgeStyle=orthogonalEdgeStyle;rounded=0;orthogonalLoop=1;jettySize=auto;html=1;exitX=1;exitY=0.5;exitDx=0;exitDy=0;entryX=0;entryY=0.5;entryDx=0;entryDy=0;" parent="1" source="FeaZ7PYPsn9ZRKP_TJsK-57" target="FeaZ7PYPsn9ZRKP_TJsK-48" edge="1">
          <mxGeometry relative="1" as="geometry" />
        </mxCell>
        <mxCell id="FeaZ7PYPsn9ZRKP_TJsK-57" value="Lista com pedidos no painel administrativo" style="rounded=0;whiteSpace=wrap;html=1;fillColor=#d5e8d4;strokeColor=#82b366;" parent="1" vertex="1">
          <mxGeometry x="680.6300000000001" y="520" width="80" height="80" as="geometry" />
        </mxCell>
        <mxCell id="FeaZ7PYPsn9ZRKP_TJsK-58" value="ML" style="text;html=1;align=center;verticalAlign=middle;whiteSpace=wrap;rounded=0;" parent="1" vertex="1">
          <mxGeometry x="680.6300000000001" y="520" width="20" height="20" as="geometry" />
        </mxCell>
        <mxCell id="FeaZ7PYPsn9ZRKP_TJsK-61" value="encerra cronÃ´metro" style="rounded=0;whiteSpace=wrap;html=1;fillColor=#dae8fc;strokeColor=#6c8ebf;" parent="1" vertex="1">
          <mxGeometry x="800.6300000000001" y="680" width="80" height="80" as="geometry" />
        </mxCell>
        <mxCell id="FeaZ7PYPsn9ZRKP_TJsK-62" value="CMD" style="text;html=1;align=center;verticalAlign=middle;whiteSpace=wrap;rounded=0;" parent="1" vertex="1">
          <mxGeometry x="800.6300000000001" y="680" width="30" height="20" as="geometry" />
        </mxCell>
        <mxCell id="FeaZ7PYPsn9ZRKP_TJsK-63" value="cronÃ´metro encerrado" style="rounded=0;whiteSpace=wrap;html=1;fillColor=#ffe6cc;strokeColor=#d79b00;" parent="1" vertex="1">
          <mxGeometry x="1040.63" y="680" width="80" height="80" as="geometry" />
        </mxCell>
        <mxCell id="FeaZ7PYPsn9ZRKP_TJsK-64" value="EV" style="text;html=1;align=center;verticalAlign=middle;whiteSpace=wrap;rounded=0;" parent="1" vertex="1">
          <mxGeometry x="1040.63" y="680" width="20" height="20" as="geometry" />
        </mxCell>
        <mxCell id="3PJ_RvcSSYgiGI0NbyJD-1" value="PreparaÃ§Ã£o" style="text;html=1;align=center;verticalAlign=middle;whiteSpace=wrap;rounded=0;rotation=-90;fontSize=20;" parent="1" vertex="1">
          <mxGeometry x="570" y="90" width="100" height="20" as="geometry" />
        </mxCell>
        <mxCell id="3PJ_RvcSSYgiGI0NbyJD-2" value="" style="endArrow=none;html=1;rounded=0;strokeWidth=3;" parent="1" edge="1">
          <mxGeometry width="50" height="50" relative="1" as="geometry">
            <mxPoint x="640" y="1280" as="sourcePoint" />
            <mxPoint x="640" y="40" as="targetPoint" />
          </mxGeometry>
        </mxCell>
        <mxCell id="6BdSg4CWeckkL4Krre7q-1" value="Entrega" style="text;html=1;align=center;verticalAlign=middle;whiteSpace=wrap;rounded=0;rotation=-90;fontSize=20;" parent="1" vertex="1">
          <mxGeometry x="1220" y="70" width="85" height="20" as="geometry" />
        </mxCell>
        <mxCell id="6BdSg4CWeckkL4Krre7q-2" value="" style="endArrow=none;html=1;rounded=0;strokeWidth=3;" parent="1" edge="1">
          <mxGeometry width="50" height="50" relative="1" as="geometry">
            <mxPoint x="1280" y="1280" as="sourcePoint" />
            <mxPoint x="1280" y="40" as="targetPoint" />
          </mxGeometry>
        </mxCell>
        <mxCell id="eK2cy_wQTkPCdCKv7Szk-1" value="&amp;nbsp;AT" style="text;html=1;align=center;verticalAlign=middle;whiteSpace=wrap;rounded=0;fontSize=5;" parent="1" vertex="1">
          <mxGeometry x="139.80999999999995" y="730" width="20" height="10" as="geometry" />
        </mxCell>
        <mxCell id="eK2cy_wQTkPCdCKv7Szk-2" value="&amp;nbsp;AT" style="text;html=1;align=center;verticalAlign=middle;whiteSpace=wrap;rounded=0;fontSize=5;" parent="1" vertex="1">
          <mxGeometry x="139.80999999999995" y="890" width="20" height="10" as="geometry" />
        </mxCell>
        <mxCell id="eK2cy_wQTkPCdCKv7Szk-3" value="&amp;nbsp;AT" style="text;html=1;align=center;verticalAlign=middle;whiteSpace=wrap;rounded=0;fontSize=5;" parent="1" vertex="1">
          <mxGeometry x="139.80999999999995" y="1050" width="20" height="10" as="geometry" />
        </mxCell>
        <mxCell id="eK2cy_wQTkPCdCKv7Szk-4" value="&amp;nbsp;AT" style="text;html=1;align=center;verticalAlign=middle;whiteSpace=wrap;rounded=0;fontSize=5;" parent="1" vertex="1">
          <mxGeometry x="139.80999999999995" y="1210" width="20" height="10" as="geometry" />
        </mxCell>
        <mxCell id="eK2cy_wQTkPCdCKv7Szk-5" value="&amp;nbsp;AT" style="text;html=1;align=center;verticalAlign=middle;whiteSpace=wrap;rounded=0;fontSize=5;" parent="1" vertex="1">
          <mxGeometry x="780.6299999999999" y="410" width="20" height="10" as="geometry" />
        </mxCell>
        <mxCell id="eK2cy_wQTkPCdCKv7Szk-6" value="&amp;nbsp;AT" style="text;html=1;align=center;verticalAlign=middle;whiteSpace=wrap;rounded=0;fontSize=5;" parent="1" vertex="1">
          <mxGeometry x="781.05" y="570" width="20" height="10" as="geometry" />
        </mxCell>
        <mxCell id="_8C6obnldTqH2nPyTwck-1" value="" style="rounded=0;whiteSpace=wrap;html=1;fillColor=#fff2cc;strokeColor=#d6b656;" vertex="1" parent="1">
          <mxGeometry x="919.81" y="200" width="80" height="560" as="geometry" />
        </mxCell>
        <mxCell id="_8C6obnldTqH2nPyTwck-2" value="AG" style="text;html=1;align=center;verticalAlign=middle;whiteSpace=wrap;rounded=0;" vertex="1" parent="1">
          <mxGeometry x="919.81" y="200" width="20" height="20" as="geometry" />
        </mxCell>
        <mxCell id="_8C6obnldTqH2nPyTwck-3" value="&lt;font style=&quot;font-size: 20px;&quot;&gt;Entrega&lt;/font&gt;" style="text;html=1;align=center;verticalAlign=middle;whiteSpace=wrap;rounded=0;rotation=-90;" vertex="1" parent="1">
          <mxGeometry x="680" y="439.79" width="560.86" height="80" as="geometry" />
        </mxCell>
      </root>
    </mxGraphModel>
  </diagram>
</mxfile>
